<svg xmlns="http://www.w3.org/2000/svg" width="56" height="56" viewBox="0 0 56 56"><g fill="none" fill-rule="evenodd"><path d="M0 0h56v56H0z"/><path fill="#528BCC" d="M47 32.614V21H9v14.154c0 1.337.14 1.822.4 2.311.262.489.646.873 1.135 1.134.489.262.974.4 2.31.4H44.9l3 3.001H13.692c-2.675 0-3.645-.278-4.623-.801a5.452 5.452 0 0 1-2.268-2.268C6.278 37.953 6 36.983 6 34.308V15.692c0-2.675.278-3.645.801-4.623A5.452 5.452 0 0 1 9.07 8.801C10.047 8.278 11.017 8 13.692 8h28.616c2.675 0 3.645.278 4.623.801a5.452 5.452 0 0 1 2.268 2.268c.523.978.801 1.948.801 4.623v19.922l-3-3zM47 18v-3.154c0-1.337-.14-1.822-.4-2.311a2.726 2.726 0 0 0-1.135-1.134c-.489-.262-.974-.401-2.31-.401h-30.31c-1.336 0-1.821.14-2.31.4A2.726 2.726 0 0 0 9.4 12.536c-.262.489-.401.974-.401 2.31V18h38z"/><path stroke="#528BCC" stroke-width="3" stroke-linecap="round" stroke-linejoin="round" d="M40.5 32.5l8 8-8 8"/></g></svg>