<svg height="48" viewBox="0 0 48 48" width="48" xmlns="http://www.w3.org/2000/svg"><g fill="none" fill-rule="evenodd"><path d="m0 0h48v48h-48z"/><path d="m37.0463373 16.0001343.1089509.0042135c.4764845.0468888.8349859.4555968.8445837.9376335l-.0040838.1124096-1.852382 22.000485c-.2690565 1.5151785-.5170306 2.2273222-1.0042656 2.9461847-.4504381.6645728-1.0420895 1.1733286-1.7568425 1.5106937-.7215993.3405966-1.4000585.4707291-2.7011782.4865664l-.2885845.0016793h-12.7850706c-1.4930015 0-2.2166206-.1233208-2.9897627-.4882457-.714753-.3373651-1.3064044-.8461209-1.7568425-1.5106937-.4567828-.6739336-.7032777-1.341962-.9631176-2.7389555l-.0522122-.289336-1.8413178-21.9183782c-.04894195-.5294272.3273627-.9995475.8404999-1.0500431.4764846-.0468888.9034056.2845292 1.0011489.7560029l.0165855.1111794 1.8302536 21.8362713c.2248204 1.2660649.3863135 1.7298484.6978939 2.1895516.2597977.3833034.5914201.6684626 1.0036658.8630435.4614533.2178071.9027339.3022888 1.9738119.312585l.2393933.0010924h12.7850706c1.2475341 0 1.7187909-.0803127 2.2132052-.3136774.4122457-.1945809.7438681-.4797401 1.0036658-.8630435.2908084-.4290563.4508741-.861667.6447153-1.8800433l.0421144-.2274014 1.8413178-21.9183782c.0419503-.4537948.3827102-.803868.8023559-.8628288zm-17.0463373 1.9998657c.5522847 0 1 .4477153 1 1v15c0 .5522847-.4477153 1-1 1s-1-.4477153-1-1v-15c0-.5522847.4477153-1 1-1zm8 0c.5522847 0 1 .4477153 1 1v15c0 .5522847-.4477153 1-1 1s-1-.4477153-1-1v-15c0-.5522847.4477153-1 1-1zm-19-5c-.55228475 0-1-.4477153-1-1s.44771525-1 1-1h7v-1.8722296c0-1.78303748.1856512-2.42960996.5342654-3.08146181s.8601913-1.163429 1.5120432-1.51204318c.6518518-.34861419 1.2984243-.53426541 3.0814618-.53426541h5.7444592c1.7830375 0 2.42961.18565122 3.0814618.53426541.6518519.34861418 1.163429.86019133 1.5120432 1.51204318s.5342654 1.29842433.5342654 3.08146181v1.8722296h7c.5522847 0 1 .4477153 1 1s-.4477153 1-1 1zm18.1098626-6.99907206-5.9820922-.00092794c-1.3237038 0-1.726809.07784319-2.1382641.2978918-.3033149.16221459-.5293999.38829961-.6916145.69161451-.2062956.38573919-.2876059.7641395-.2969639 1.90063109l-.0009279 2.1098626h12v-1.8722296c0-1.32370383-.0778432-1.72680895-.2978918-2.13826409-.1622146-.3033149-.3882996-.52939992-.6916145-.69161451-.3857392-.20629557-.7641395-.28760591-1.9006311-.29696386z" fill="#afbac6" fill-rule="nonzero"/></g></svg>