<svg height="24" viewBox="0 0 24 24" width="24" xmlns="http://www.w3.org/2000/svg"><g fill="none" fill-rule="evenodd"><path d="m0 0h24v24h-24z" opacity=".1"/><path d="m0 0h24v24h-24z" opacity=".1"/><path d="m5.29320351 20.9124827c-.290764.0722596-.59810582.0317149-.86018359-.1134761-.57256367-.3171999-.77957686-1.0384958-.46236601-1.6110792.65141746-1.1757757 1.07778417-2.1399505 1.2814444-2.8746594-1.37365728-1.4329492-2.15209831-3.2677787-2.15209831-5.216517 0-4.4420945 4.00708044-7.996751 8.9-7.996751 4.8929196 0 8.9 3.5546565 8.9 7.996751 0 4.4420944-4.0070804 7.9967509-8.9 7.9967509-.6599187 0-1.3108292-.0645815-1.9442061-.1913073-1.07621411.8273335-2.66143001 1.488115-4.76259039 2.0102881zm3.92079825-3.650505c.22285072-.2032522.53269901-.2813602.82526984-.208038.6316824.158308 1.289585.2395622 1.9607284.2395622 3.9436364 0 7.1-2.7999907 7.1-6.1967509 0-3.39676023-3.1563636-6.196751-7.1-6.196751-3.94363644 0-7.1 2.79999077-7.1 6.196751 0 1.6032746.70182546 3.1147075 1.94936827 4.2626499.22436003.2064478.32894416.5124478.2778762.8130308-.12334287.725989-.43053898 1.5929968-.92001598 2.6128169 1.38268887-.4437459 2.38643336-.9574868 3.00677327-1.5232709z" fill="#828a99" fill-rule="nonzero"/></g></svg>