<svg height="142" viewBox="0 0 160 142" width="160" xmlns="http://www.w3.org/2000/svg"><g fill="none" fill-rule="evenodd"><path d="m0 0h160v142h-160z"/><path d="m22.2819426 39h97.4361144c.44576 0 .607403.0464128.770366.1335664.162963.0871535.290857.2150478.378011.3780107.087153.162963.133566.3246061.133566.7703655v23.4361148c0 .4457594-.046413.6074025-.133566.7703655-.087154.1629629-.215048.2908572-.378011.3780107-.162963.0871536-.324606.1335664-.770366.1335664h-97.4361144c-.4457594 0-.6074025-.0464128-.7703655-.1335664-.1629629-.0871535-.2908572-.2150478-.3780107-.3780107-.0871536-.162963-.1335664-.3246061-.1335664-.7703655v-23.4361148c0-.4457594.0464128-.6074025.1335664-.7703655.0871535-.1629629.2150478-.2908572.3780107-.3780107.162963-.0871536.3246061-.1335664.7703655-.1335664zm109.3590284 31h20.718058c.222879 0 .303701.0232064.385182.0667832.081482.0435767.145429.1075239.189006.1890054s.066783.162303.066783.3851827v25.7180574c0 .2228797-.023206.3037012-.066783.3851827s-.107524.1454287-.189006.1890054c-.081481.0435768-.162303.0667832-.385182.0667832h-20.718058c-.222879 0-.303701-.0232064-.385182-.0667832-.081482-.0435767-.145429-.1075239-.189006-.1890054s-.066783-.162303-.066783-.3851827v-25.7180574c0-.2228797.023206-.3037012.066783-.3851827s.107524-.1454287.189006-.1890054c.081481-.0435768.162303-.0667832.385182-.0667832z" fill="#5c9ce6"/><path d="m22.2819426 69h61.4361148c.4457594 0 .6074025.0464128.7703655.1335664.1629629.0871535.2908572.2150478.3780107.3780107.0871536.162963.1335664.3246061.1335664.7703655v31.4361144c0 .44576-.0464128.607403-.1335664.770366-.0871535.162963-.2150478.290857-.3780107.378011-.162963.087153-.3246061.133566-.7703655.133566h-61.4361148c-.4457594 0-.6074025-.046413-.7703655-.133566-.1629629-.087154-.2908572-.215048-.3780107-.378011-.0871536-.162963-.1335664-.324606-.1335664-.770366v-31.4361144c0-.4457594.0464128-.6074025.1335664-.7703655.0871535-.1629629.2150478-.2908572.3780107-.3780107.162963-.0871536.3246061-.1335664.7703655-.1335664zm68 0h29.4361144c.44576 0 .607403.0464128.770366.1335664.162963.0871535.290857.2150478.378011.3780107.087153.162963.133566.3246061.133566.7703655v31.4361144c0 .44576-.046413.607403-.133566.770366-.087154.162963-.215048.290857-.378011.378011-.162963.087153-.324606.133566-.770366.133566h-29.4361144c-.4457594 0-.6074025-.046413-.7703655-.133566-.1629629-.087154-.2908572-.215048-.3780107-.378011-.0871536-.162963-.1335664-.324606-.1335664-.770366v-31.4361144c0-.4457594.0464128-.6074025.1335664-.7703655.0871535-.1629629.2150478-.2908572.3780107-.3780107.162963-.0871536.3246061-.1335664.7703655-.1335664zm41.3590284 30h20.718058c.222879 0 .303701.0232064.385182.0667832.081482.0435767.145429.1075239.189006.1890054s.066783.162303.066783.3851827v7.7180577c0 .222879-.023206.303701-.066783.385182-.043577.081482-.107524.145429-.189006.189006-.081481.043577-.162303.066783-.385182.066783h-20.718058c-.222879 0-.303701-.023206-.385182-.066783-.081482-.043577-.145429-.107524-.189006-.189006-.043577-.081481-.066783-.162303-.066783-.385182v-7.7180577c0-.2228797.023206-.3037012.066783-.3851827s.107524-.1454287.189006-.1890054c.081481-.0435768.162303-.0667832.385182-.0667832z" fill="#e1e7f0"/><g fill="#a5abb8"><path d="m118 112h-117c-.55228475 0-1-.447715-1-1v-3c0-.552285.44771525-1 1-1h10v-71.590287c0-2.2287968.232064-3.0370124.6678318-3.8518273.4357677-.8148148 1.0752391-1.4542862 1.8900539-1.8900539.8148149-.4357678 1.6230305-.6678318 3.8518273-.6678318h107.180574c2.228797 0 3.037012.232064 3.851827.6678318.814815.4357677 1.454287 1.0752391 1.890054 1.8900539.435768.8148149.667832 1.6230305.667832 3.8518273v18.590287 2c0 .5522847-.447715 1-1 1h-3c-.552285 0-1-.4477153-1-1v1-2-3-16.7180574c0-.4457594-.046413-.6074025-.133566-.7703655-.087154-.1629629-.215048-.2908572-.378011-.3780107-.162963-.0871536-.324606-.1335664-.770366-.1335664h-107.4361144c-.4457594 0-.6074025.0464128-.7703655.1335664-.1629629.0871535-.2908572.2150478-.3780107.3780107-.0871536.162963-.1335664.3246061-.1335664.7703655v70.4361144c0 .44576.0464128.607403.1335664.770366.0871535.162963.2150478.290857.3780107.378011.162963.087153.3246061.133566.7703655.133566h96.7180574 5 2-1c.552285 0 1 .447715 1 1v3c0 .552285-.447715 1-1 1zm21-4v3z"/><path d="m131.12777 62h21.74446c1.783037 0 2.42961.1856512 3.081461.5342654.651852.3486142 1.163429.8601913 1.512044 1.5120432.348614.6518518.534265 1.2984243.534265 3.0814618v43.7444596c0 1.783037-.185651 2.42961-.534265 3.081461-.348615.651852-.860192 1.163429-1.512044 1.512044-.651851.348614-1.298424.534265-3.081461.534265h-21.74446c-1.783037 0-2.42961-.185651-3.081461-.534265-.651852-.348615-1.163429-.860192-1.512044-1.512044-.348614-.651851-.534265-1.298424-.534265-3.081461v-43.7444596c0-1.7830375.185651-2.42961.534265-3.0814618.348615-.6518519.860192-1.163429 1.512044-1.5120432.651851-.3486142 1.298424-.5342654 3.081461-.5342654zm-.845827 6c-.44576 0-.607403.0464128-.770366.1335664-.162963.0871535-.290857.2150478-.378011.3780107-.087153.162963-.133566.3246061-.133566.7703655v39.4361144c0 .44576.046413.607403.133566.770366.087154.162963.215048.290857.378011.378011.162963.087153.324606.133566.770366.133566h23.436114c.44576 0 .607403-.046413.770366-.133566.162963-.087154.290857-.215048.378011-.378011.087153-.162963.133566-.324606.133566-.770366v-39.4361144c0-.4457594-.046413-.6074025-.133566-.7703655-.087154-.1629629-.215048-.2908572-.378011-.3780107-.162963-.0871536-.324606-.1335664-.770366-.1335664z"/></g></g></svg>