<svg height="96" viewBox="0 0 96 96" xmlns="http://www.w3.org/2000/svg"><g fill="none" fill-rule="evenodd"><path d="m0 0h96v96h-96z"/><g fill-rule="nonzero"><path d="m12 12h72v72h-72z"/><g fill="#d5dfe9"><path d="m25 44.9820225c0-1.3873839-1.2320397-2.2722665-2.6052065-1.8976468-1.9258128.5253895-3.3947935 3.1562233-3.3947935 7.9106995 0 4.7544433 1.4686867 7.3861509 3.3986422 7.9181914 1.3722814.3783038 2.6013578-.4939028 2.6013578-1.8536478zm-3.4400097-4.7793467c.9240746-13.7973565 12.4085053-24.7026758 26.4400097-24.7026758s25.5159351 10.9053193 26.4400097 24.7026758c3.4035217.9574656 5.5599903 4.8457142 5.5599903 10.7923994 0 5.9708644-2.1733822 9.8653006-5.6013578 10.8103079-3.235611.8919772-6.3986422-1.3526487-6.3986422-4.7457643v-12.0775963c0-2.3274673 1.4689665-4.121638 3.4318849-4.7454681-.9206612-12.1756758-11.0597416-21.7365544-23.4318849-21.7365544-12.3851758 0-22.5325817 9.5810316-23.4347636 21.7356405 1.9643607.6229902 3.4347636 2.417777 3.4347636 4.746382v12.0775963c0 3.3931156-3.1630312 5.6377415-6.3986422 4.7457643-3.4279756-.9450073-5.6013578-4.8394435-5.6013578-10.8103079 0-5.9466852 2.1564686-9.8349338 5.5599903-10.7923994zm49.4400097 4.7793467v12.0775963c0 1.359745 1.2290764 2.2319516 2.6013578 1.8536478 1.9299555-.5320405 3.3986422-3.1637481 3.3986422-7.9181914 0-4.7544762-1.4689807-7.38531-3.3947935-7.9106995-1.3731668-.3746197-2.6052065.5102629-2.6052065 1.8976468z"/><path d="m60 47h-3.5c-.8284271 0-1.5-.6715729-1.5-1.5s.6715729-1.5 1.5-1.5h3.5v-2c0-6.627417-5.372583-12-12-12s-12 5.372583-12 12v2h7.5c.8284271 0 1.5.6715729 1.5 1.5s-.6715729 1.5-1.5 1.5h-7.5v8h7.5c.8284271 0 1.5.6715729 1.5 1.5s-.6715729 1.5-1.5 1.5h-7.5v2c0 6.627417 5.372583 12 12 12s12-5.372583 12-12v-2h-3.5c-.8284271 0-1.5-.6715729-1.5-1.5s.6715729-1.5 1.5-1.5h3.5zm-10.5 27.9259371v4.5740629c0 .8284271-.6715729 1.5-1.5 1.5s-1.5-.6715729-1.5-1.5v-4.5740629c-7.579984-.7525866-13.5-7.1479149-13.5-14.9259371v-18c0-8.2842712 6.7157288-15 15-15s15 6.7157288 15 15v18c0 7.7780222-5.920016 14.1733505-13.5 14.9259371z"/></g></g></g></svg>