<svg height="48" viewBox="0 0 48 48" width="48" xmlns="http://www.w3.org/2000/svg"><g fill="none" fill-rule="evenodd"><path d="m0 0h48v48h-48z" transform="matrix(-1 0 0 1 48 0)"/><path d="m24 4c11.045695 0 20 8.954305 20 20s-8.954305 20-20 20-20-8.954305-20-20 8.954305-20 20-20zm0 2c-9.9411255 0-18 8.0588745-18 18s8.0588745 18 18 18 18-8.0588745 18-18-8.0588745-18-18-18zm0 24c1.1045695 0 2 .8954305 2 2s-.8954305 2-2 2-2-.8954305-2-2 .8954305-2 2-2zm0-16c.5522847 0 1 .4477153 1 1v10c0 .5522847-.4477153 1-1 1s-1-.4477153-1-1v-10c0-.5522847.4477153-1 1-1z" fill="#afbac6" fill-rule="nonzero"/></g></svg>