<svg width="24" height="24" xmlns="http://www.w3.org/2000/svg" xmlns:xlink="http://www.w3.org/1999/xlink"><defs><path d="M9.8205 17.927c-.9375.855-2.519 1.559-4.7444 2.112a.2852.2852 0 0 1-.3182-.415v.0001c.8366-1.51 1.3306-2.7108 1.482-3.6024C4.853 14.7455 4 13.0095 4 11.0967 4 7.1774 7.5817 4 12 4s8 3.1773 8 7.0968c0 3.9194-3.5817 7.0967-8 7.0967a8.962 8.962 0 0 1-2.1795-.2666z" id="a"/></defs><g fill="none" fill-rule="evenodd"><path opacity=".1" d="M0 0h24v24H0z"/><path opacity=".1" d="M0 0h24v24H0z"/><g stroke-linecap="round" stroke-linejoin="round" stroke="#528BCC"><path d="M9.9542 18.472c-1.0224.8397-2.6067 1.5178-4.7575 2.0523a.7852.7852 0 0 1-.8762-1.1425c.731-1.3195 1.1888-2.3867 1.3749-3.1885C4.2951 14.8108 3.5 13.0109 3.5 11.0968 3.5 6.887 7.318 3.5 12 3.5s8.5 3.387 8.5 7.5968c0 4.2097-3.818 7.5967-8.5 7.5967a9.4885 9.4885 0 0 1-2.0458-.2214z"/><path stroke-width=".8" d="M5.113 19.8086a30.2978 30.2978 0 0 1-.0052.0093.115.115 0 0 0 .0112-.0287zm.122-.2226c2.0316-.5278 3.4716-1.1845 4.316-1.9546l.1585-.1446.2082.0521A8.562 8.562 0 0 0 12 17.7935c4.2073 0 7.6-3.0096 7.6-6.6967C19.6 7.4096 16.2073 4.4 12 4.4s-7.6 3.0096-7.6 6.6968c0 1.747.763 3.3904 2.1108 4.6305l.1599.1472-.0364.2142c-.1524.8972-.6194 2.059-1.3994 3.4973z" stroke-linejoin="square"/><use xlink:href="#a"/></g></g></svg>