<svg height="16" viewBox="0 0 12 16" width="12" xmlns="http://www.w3.org/2000/svg"><g fill="none" fill-rule="evenodd" transform="translate(-2)"><path d="m0 0h16v16h-16z"/><path d="m7.45670576.04911915c-.21746044.16124075-.39354983.28992352-.52826815.38604828-3.60678234 2.57352584-4.91325134 6.21397566-4.92843761 8.80022332 0 3.41606475 2.57142857 5.76460925 6 5.76460925 3.4285714 0 5.9571805-2.348961 6-5.76460925.0119431-.95268654-.0710479-3.16769653-2.1929506-5.81400922-.5962293-.74358226-1.1082952-1.25637386-1.5361978-1.5383748l-.0000015.00000235c-.1060626-.06989851-.2487073-.04058173-.31860582.06548088-.02933254.04450861-.04229446.09782385-.03666986.1508312.02384734.2247418.05351381.50103435.08899938.82887765.2060846 1.90396856-.7570742 2.78607329-2.07373634 2.59133158-1.27299484-.18828307-2.10211948-1.94038939-.2142792-4.85525262.05325387-.08222504.09758504-.20202818.13299351-.35940941l.00006741.00001517c.03031481-.13474125-.05433955-.26854562-.18908081-.29886043-.07097833-.01596908-.1453922-.00023586-.20383261.04309605z" fill="#f05c44" fill-rule="nonzero"/></g></svg>