<svg height="24" viewBox="0 0 24 24" width="24" xmlns="http://www.w3.org/2000/svg"><g fill="none" fill-rule="evenodd"><path d="m0 0h24v24h-24z"/><path d="m4.44621165 3.39705176.08411844.07261815 2.16560862 2.16524975c1.58981905-.9563155 3.43556729-1.58491966 5.30406129-1.58491966 5.1100628 0 10.05 4.70160685 10.05 7.95 0 1.7255645-1.4042765 3.8724698-3.4883889 5.5001176l1.8786216 1.8794549c.2928932.2928932.2928932.7677669 0 1.0606602-.2662666.2662665-.6829303.2904726-.9765418.0726181l-.0841184-.0726181-2.0748004-2.0748997c-1.5543065.9369627-3.3527334 1.5596372-5.1763995 1.5838325l-.4019361-.0036282c-5.01135044-.1629884-9.7764365-4.7551512-9.7764365-7.9455373 0-1.7315653 1.40366031-3.87605463 3.48852375-5.50123098l-1.96885384-1.96843893c-.29289321-.29289322-.29289321-.76776696 0-1.06066018.26626657-.26626656.68293025-.29047261.97654174-.07261815zm2.05931678 4.16950823c-1.81645156 1.36009937-3.05552843 3.13631871-3.05552843 4.43344001 0 2.4029226 4.25222875 6.4500165 8.5450285 6.4500165l.1184205-.0007685c1.4234703-.0188904 2.8398833-.4825507 4.0942601-1.1800538l-1.4217479-1.4215759c-.7826243.567662-1.7452037.9023817-2.7859612.9023817-2.62335256 0-4.75-2.1266474-4.75-4.75 0-1.0407575.33471967-2.00333695.90238174-2.78596119zm5.49447157-2.01655999c-1.462958 0-2.9206389.46894145-4.20712003 1.1823473l1.42115884 1.42003444c.78262424-.56766207 1.74520369-.90238174 2.78596119-.90238174 2.6233526 0 4.75 2.12664744 4.75 4.75 0 1.0407575-.3347197 2.0033369-.9023817 2.7859612l1.6474003 1.6467413c1.8151333-1.3627373 3.0549814-3.1417959 3.0549814-4.4327025 0-2.40292264-4.2522287-6.45-8.55-6.45zm-2.76668727 4.7438697c-.30645616.4958984-.48331273 1.0803608-.48331273 1.7061303 0 1.7949254 1.4550746 3.25 3.25 3.25.6257695 0 1.2102319-.1768566 1.7061303-.4833127zm2.76668727-1.5438697c-.6257695 0-1.2102319.17685657-1.7061303.48331273l4.4728176 4.47281757c.3064561-.4958984.4833127-1.0803608.4833127-1.7061303 0-1.7949254-1.4550746-3.25-3.25-3.25z" fill="#fff" fill-rule="nonzero"/></g></svg>