<svg xmlns="http://www.w3.org/2000/svg" width="48" height="48"><g fill="none" fill-rule="evenodd" stroke="#a3adb8" stroke-width="2"><rect width="46" height="46" x="1" y="1" rx="23"/><path d="M23.12 31.93l-4.7 2.87a1.68 1.68 0 01-2.51-1.82l1.28-5.37a1.68 1.68 0 00-.54-1.66l-4.63-3.96a1.44 1.44 0 01.82-2.53l6.07-.49a1.68 1.68 0 001.42-1.03l2.12-5.1a1.68 1.68 0 013.1 0l2.12 5.1c.24.58.79.98 1.42 1.03l5.5.44a1.68 1.68 0 01.95 2.95l-4.19 3.59a1.68 1.68 0 00-.54 1.66l1.28 5.37a1.68 1.68 0 01-2.5 1.82l-4.71-2.87a1.68 1.68 0 00-1.76 0z"/></g></svg>