<svg xmlns="http://www.w3.org/2000/svg" width="62" height="75"><path fill="#D5DFE9" d="M59.014 9H9v64h50.014V9zM7 66V8c0-.552.45-1 1.007-1h44.007V2H2v64h5zM54.014 7h5.993c.556 0 1.007.452 1.007 1v66c0 .552-.45 1-1.007 1h-52A1.007 1.007 0 0 1 7 74v-6H1.007A1.007 1.007 0 0 1 0 67V1c0-.552.45-1 1.007-1h52c.556 0 1.007.452 1.007 1v6zM23.839 34.864l-2.417.832a1 1 0 0 1-.651-1.89l4.68-1.612a1 1 0 0 1 1.271.62l1.612 4.68a1 1 0 1 1-1.891.65l-.819-2.375c-.092.165-.18.333-.264.505-2.42 4.964-.36 10.95 4.604 13.371a9.972 9.972 0 0 0 8.254.234 1 1 0 0 1 .773 1.844 11.972 11.972 0 0 1-9.903-.28c-5.957-2.905-8.43-10.09-5.525-16.046.088-.18.18-.358.276-.533zm6.83-3.505a1 1 0 0 1-.735-1.86 11.969 11.969 0 0 1 9.675.373c5.956 2.905 8.43 10.09 5.525 16.046a12.074 12.074 0 0 1-1.025 1.723 1 1 0 1 1-1.628-1.162c.322-.452.608-.932.855-1.438 2.421-4.964.36-10.95-4.604-13.371a9.97 9.97 0 0 0-8.063-.311zm8.824.798a1 1 0 0 1 1.034-1.712c5.29 3.197 7.295 9.932 4.567 15.524-2.727 5.592-9.269 8.16-15.045 5.96a1 1 0 0 1 .712-1.87c4.811 1.833 10.263-.307 12.536-4.966 2.272-4.66.602-10.273-3.804-12.936zm-.074 10.663a1 1 0 1 1-.64 1.895l-5.783-1.953a1 1 0 0 1-.68-.947v-5.903a1 1 0 1 1 2 0v5.185l5.103 1.723z"/></svg>