<svg height="56" viewBox="0 0 56 56" width="56" xmlns="http://www.w3.org/2000/svg"><g fill="none" fill-rule="evenodd"><path d="m0 0h56v56h-56z"/><path d="m28 4c13.254834 0 24 10.745166 24 24s-10.745166 24-24 24-24-10.745166-24-24 10.745166-24 24-24zm0 3c-11.5979797 0-21 9.4020203-21 21s9.4020203 21 21 21 21-9.4020203 21-21-9.4020203-21-21-21zm0 27c1.1045695 0 2 .8954305 2 2s-.8954305 2-2 2-2-.8954305-2-2 .8954305-2 2-2zm0-17.5c.8284271 0 1.5.6715729 1.5 1.5v11l-.0068666.14446c-.0726847.7606519-.7134373 1.35554-1.4931334 1.35554-.8284271 0-1.5-.6715729-1.5-1.5v-11l.0068666-.14446c.0726847-.7606519.7134373-1.35554 1.4931334-1.35554z" fill="#eb4250" fill-rule="nonzero"/></g></svg>