<svg width="32" height="32" xmlns="http://www.w3.org/2000/svg"><defs><linearGradient x1="0%" y1="0%" y2="100%" id="a"><stop stop-color="#FF5263" offset="0%"/><stop stop-color="#FF3347" offset="100%"/></linearGradient></defs><g fill="none" fill-rule="evenodd"><circle stroke-opacity=".08" stroke="#000" stroke-width=".5" fill="url(#a)" fill-rule="nonzero" cx="16" cy="16" r="15.75"/><path d="M4.5 4h24v24h-24z"/><path d="M25.45 14.335c.44.66.504 1.57.165 2.283l-2.296 4.821c-1.303 2.737-4.643 4.847-7.678 4.847h-.855a6.856 6.856 0 01-6.857-6.865v-6.74a2.353 2.353 0 013-2.264v-.628a2.357 2.357 0 013.06-2.253 2.356 2.356 0 014.65.41 2.356 2.356 0 013.003 2.272v3.655c1.114-1.096 2.879-.933 3.808.462zm-15.164-2.293a.64.64 0 00-.643.639v6.74a5.142 5.142 0 005.143 5.15h.855c2.377 0 5.112-1.732 6.13-3.869l2.296-4.82a.674.674 0 00-.043-.596c-.367-.55-.963-.556-1.328-.009l-1.867 2.8c-.494.741-.9.623-.9-.276v-7.583a.642.642 0 00-.643-.647.64.64 0 00-.643.64v4.935a.856.856 0 01-.857.854.853.853 0 01-.857-.853V8.073a.643.643 0 10-1.286 0v7.074a.86.86 0 01-.857.853.854.854 0 01-.857-.855V9.788a.643.643 0 00-1.286.001v5.775a.864.864 0 01-.857.865.855.855 0 01-.857-.857V12.69a.644.644 0 00-.643-.648z" fill="#FFF" fill-rule="nonzero"/></g></svg>