<svg xmlns="http://www.w3.org/2000/svg" width="40" height="40"><g fill="none" fill-rule="evenodd"><path fill="#65BF63" d="M20 0c11.046 0 20 8.954 20 20s-8.954 20-20 20S0 31.046 0 20 8.954 0 20 0z"/><path fill="#FFF" d="M19.983 11C15.572 11 12 14 12 18.6c0 3.4 3.782 8.4 6.093 11.2 1.47 1.6 1.89 1.6 3.361 0 2.311-2.8 6.093-8 6.093-11.2.21-4.6-3.362-7.6-7.564-7.6zm-.205 11.429c-2.08 0-3.536-1.701-3.536-3.615 0-2.126 1.664-3.614 3.536-3.614 1.871 0 3.535 1.7 3.535 3.614s-1.664 3.615-3.535 3.615z"/></g></svg>