<svg width="24" height="24" xmlns="http://www.w3.org/2000/svg" xmlns:xlink="http://www.w3.org/1999/xlink"><defs><path d="M7.9 7.1h3.2a.9.9 0 1 1 0 1.8H7.9a.9.9 0 0 1 0-1.8zm0 4h8.2a.9.9 0 1 1 0 1.8H7.9a.9.9 0 1 1 0-1.8zm0 4h8.2a.9.9 0 1 1 0 1.8H7.9a.9.9 0 1 1 0-1.8zM8.128 3h7.744c1.783 0 2.43.186 3.082.534.652.349 1.163.86 1.512 1.512.348.652.534 1.299.534 3.082v7.744c0 1.783-.186 2.43-.534 3.082a3.635 3.635 0 0 1-1.512 1.512c-.652.348-1.299.534-3.082.534H8.128c-1.783 0-2.43-.186-3.082-.534a3.635 3.635 0 0 1-1.512-1.512C3.186 18.302 3 17.655 3 15.872V8.128c0-1.783.186-2.43.534-3.082a3.635 3.635 0 0 1 1.512-1.512C5.698 3.186 6.345 3 8.128 3zm0 1.8c-1.354 0-1.788.084-2.233.322-.338.18-.593.435-.773.773-.238.445-.322.879-.322 2.233v7.744c0 1.354.084 1.788.322 2.233.18.338.435.593.773.773.445.238.879.322 2.233.322h7.744c1.354 0 1.788-.084 2.233-.322.338-.18.593-.435.773-.773.238-.445.322-.879.322-2.233V8.128c0-1.354-.084-1.788-.322-2.233a1.835 1.835 0 0 0-.773-.773c-.445-.238-.879-.322-2.233-.322H8.128z" id="a"/></defs><g fill="none" fill-rule="evenodd"><path d="M0 0h24v24H0z"/><mask id="b" fill="#fff"><use xlink:href="#a"/></mask><use fill="#000" fill-rule="nonzero" xlink:href="#a"/><g mask="url(#b)" fill="#828A99" fill-rule="nonzero"><path d="M0 0h24v24H0z"/></g></g></svg>