<svg height="54" viewBox="0 0 54 54" width="54" xmlns="http://www.w3.org/2000/svg"><g fill="none" fill-rule="evenodd"><path d="m0 0h54v54h-54z" fill-rule="nonzero"/><g fill="#fff" transform="translate(6 2)"><path d="m4.80728475 4h8.38543055c1.6715976 0 2.2777593.17404802 2.8888704.50087382s1.0907147.80642937 1.4175405 1.41754049c.3268258.61111111.5008738 1.2172728.5008738 2.88887044v8.38543055c0 1.6715976-.174048 2.2777593-.5008738 2.8888704s-.8064294 1.0907147-1.4175405 1.4175405-1.2172728.5008738-2.8888704.5008738h-8.38543055c-1.67159764 0-2.27775933-.174048-2.88887044-.5008738-.61111112-.3268258-1.09071469-.8064294-1.41754049-1.4175405s-.50087382-1.2172728-.50087382-2.8888704v-8.38543055c0-1.67159764.17404802-2.27775933.50087382-2.88887044.3268258-.61111112.80642937-1.09071469 1.41754049-1.41754049.61111111-.3268258 1.2172728-.50087382 2.88887044-.50087382z"/><path d="m4.80728475 28h8.38543055c1.6715976 0 2.2777593.174048 2.8888704.5008738s1.0907147.8064294 1.4175405 1.4175405.5008738 1.2172728.5008738 2.8888704v8.3854306c0 1.6715976-.174048 2.2777593-.5008738 2.8888704s-.8064294 1.0907147-1.4175405 1.4175405-1.2172728.5008738-2.8888704.5008738h-8.38543055c-1.67159764 0-2.27775933-.174048-2.88887044-.5008738-.61111112-.3268258-1.09071469-.8064294-1.41754049-1.4175405s-.50087382-1.2172728-.50087382-2.8888704v-8.3854306c0-1.6715976.17404802-2.2777593.50087382-2.8888704s.80642937-1.0907147 1.41754049-1.4175405c.61111111-.3268258 1.2172728-.5008738 2.88887044-.5008738z"/><path d="m28.8072847 28h8.3854306c1.6715976 0 2.2777593.174048 2.8888704.5008738s1.0907147.8064294 1.4175405 1.4175405.5008738 1.2172728.5008738 2.8888704v8.3854306c0 1.6715976-.174048 2.2777593-.5008738 2.8888704s-.8064294 1.0907147-1.4175405 1.4175405-1.2172728.5008738-2.8888704.5008738h-8.3854306c-1.6715976 0-2.2777593-.174048-2.8888704-.5008738s-1.0907147-.8064294-1.4175405-1.4175405-.5008738-1.2172728-.5008738-2.8888704v-8.3854306c0-1.6715976.174048-2.2777593.5008738-2.8888704s.8064294-1.0907147 1.4175405-1.4175405 1.2172728-.5008738 2.8888704-.5008738z"/><path d="m28.8072847 4h8.3854306c1.6715976 0 2.2777593.17404802 2.8888704.50087382s1.0907147.80642937 1.4175405 1.41754049c.3268258.61111111.5008738 1.2172728.5008738 2.88887044v8.38543055c0 1.6715976-.174048 2.2777593-.5008738 2.8888704s-.8064294 1.0907147-1.4175405 1.4175405-1.2172728.5008738-2.8888704.5008738h-8.3854306c-1.6715976 0-2.2777593-.174048-2.8888704-.5008738s-1.0907147-.8064294-1.4175405-1.4175405-.5008738-1.2172728-.5008738-2.8888704v-8.38543055c0-1.67159764.174048-2.27775933.5008738-2.88887044.3268258-.61111112.8064294-1.09071469 1.4175405-1.41754049s1.2172728-.50087382 2.8888704-.50087382z" transform="matrix(.70710678 .70710678 -.70710678 .70710678 18.857864 -19.526912)"/></g></g></svg>