<svg height="56" viewBox="0 0 56 56" width="56" xmlns="http://www.w3.org/2000/svg"><g fill="none"><path d="m0 0h56v56h-56z"/><path d="m12.4393398 10.4393398c.5857865-.58578641 1.5355339-.58578641 2.1213204 0l31 31c.5857864.5857865.5857864 1.5355339 0 2.1213204-.5857865.5857864-1.5355339.5857864-2.1213204 0l-2.5145741-2.51397c-3.8946887 2.5258172-8.2731443 3.9533098-12.9247657 3.9533098-6.2557909 0-12.0037328-2.5831525-16.6385869-6.8317688-3.71699267-3.4072432-6.3614131-7.6837669-6.3614131-10.1682312 0-3.349126 4.36211258-9.2555255 9.932023-12.9471657l-2.4926832-2.4921741c-.5857864-.5857865-.5857864-1.5355339 0-2.1213204zm4.6627535 6.7843161c-5.0492366 3.1628895-9.1020933 8.5087475-9.1020933 10.7763441 0 1.4540123 2.2315089 5.0627806 5.3885869 7.9567688 4.115942 3.7729468 9.1677007 6.0432312 14.6114131 6.0432312 3.8275742 0 7.4602469-1.1184248 10.750022-3.1288429l-4.4458125-4.4456608c-1.6589327 1.6283773-3.9034009 2.5745037-6.3023065 2.5745037-4.9705627 0-9-4.0294373-9-9 0-2.3993623.9465512-4.6437386 2.5742926-6.3021306zm10.8979067-6.2236559c6.2557909 0 12.0037328 2.5831525 16.6385869 6.8317688 3.7169927 3.4072432 6.3614131 7.6837669 6.3614131 10.1682312 0 1.9897781-1.7144303 5.1711493-4.3310117 8.1094808-.5509333.6186792-1.4990916.6735982-2.1177708.1226649-.6186793-.5509333-.6735982-1.4990916-.122665-2.1177708 2.1716956-2.4387399 3.5714475-5.0361803 3.5714475-6.1143749 0-1.4540123-2.2315089-5.0627806-5.3885869-7.9567688-4.115942-3.7729468-9.1677007-6.0432312-14.6114131-6.0432312-1.4427042 0-2.8598063.1589935-4.2475915.4680283-.808621.1800654-1.6101097-.3294796-1.7901751-1.1381007-.1800653-.808621.3294797-1.6101097 1.1381007-1.790175 1.5997749-.3562411 3.2354043-.5397526 4.8996659-.5397526zm-4.3018432 12.8188062c-1.0740438 1.1041837-1.6962538 2.5900812-1.6962538 4.1811938 0 3.3137085 2.6862915 6 6 6 1.5905141 0 3.0760973-.6216402 4.1805936-1.6957087zm5.9292737-3.2952858c.3316845-.759129 1.2159636-1.1056413 1.9750927-.7739568 2.0769575.9074803 3.7434905 2.574345 4.6505487 4.6514932.3315293.7591968-.0151636 1.6434051-.7743604 1.9749344-.7591968.3315294-1.643405-.0151635-1.9749344-.7743603-.6045314-1.3843667-1.7181467-2.4982037-3.1023898-3.1030178-.759129-.3316845-1.1056413-1.2159636-.7739568-1.9750927z" fill="#fff"/></g></svg>