<svg height="24" viewBox="0 0 24 24" width="24" xmlns="http://www.w3.org/2000/svg"><g fill="none" fill-rule="evenodd"><path d="m0 0h24v24h-24z"/><path d="m9.999976 4c.5522847 0 1 .44771525 1 1v14c0 .5522847-.4477153 1-1 1-.55228475 0-1-.4477153-1-1v-14c0-.55228475.44771525-1 1-1zm-4 9c.55228475 0 1 .4477153 1 1v5c0 .5522847-.44771525 1-1 1s-1-.4477153-1-1v-5c0-.5522847.44771525-1 1-1zm8-2c.5522847 0 1 .4477153 1 1v7c0 .5522847-.4477153 1-1 1s-1-.4477153-1-1v-7c0-.5522847.4477153-1 1-1zm4-4c.5522847 0 1 .44771525 1 1v11c0 .5522847-.4477153 1-1 1s-1-.4477153-1-1v-11c0-.55228475.4477153-1 1-1z" fill="#828a99"/></g></svg>