<svg xmlns="http://www.w3.org/2000/svg" width="16" height="16" viewBox="0 0 16 16"><path fill="#A9AFB8" d="M5.186 2.953c.386-.216.8-.39 1.235-.512L6.823.193c.012-.07.023-.095.04-.12A.16.16 0 0 1 6.929.02C6.956.006 6.982 0 7.053 0h1.894c.071 0 .097.006.124.019a.16.16 0 0 1 .066.055c.017.024.028.048.04.119L9.58 2.44c.435.123.849.296 1.235.512l1.874-1.306c.059-.04.084-.05.113-.056a.16.16 0 0 1 .085.008c.028.01.05.024.101.074l1.34 1.34c.05.05.064.073.074.1a.16.16 0 0 1 .008.086c-.005.03-.015.054-.056.113l-1.306 1.874c.216.386.39.8.512 1.235l2.248.402c.07.012.095.023.12.04a.16.16 0 0 1 .054.066c.013.027.019.053.019.124v1.894c0 .071-.006.097-.019.124a.16.16 0 0 1-.055.066c-.024.017-.048.028-.119.04l-2.248.402c-.123.435-.296.849-.512 1.235l1.306 1.874c.04.059.05.084.056.113a.16.16 0 0 1-.008.085c-.01.028-.024.05-.074.101l-1.34 1.34c-.05.05-.073.064-.1.074a.16.16 0 0 1-.086.008c-.03-.005-.054-.015-.113-.056l-1.874-1.306c-.386.216-.8.39-1.235.512l-.402 2.248c-.012.07-.023.095-.04.12a.16.16 0 0 1-.066.054c-.027.013-.053.019-.124.019H7.053c-.071 0-.097-.006-.124-.019a.16.16 0 0 1-.066-.055c-.017-.024-.028-.048-.04-.119L6.42 13.56a5.742 5.742 0 0 1-1.235-.512l-1.874 1.306c-.059.04-.084.05-.113.056a.16.16 0 0 1-.085-.008c-.028-.01-.05-.024-.101-.074l-1.34-1.34c-.05-.05-.064-.073-.074-.1a.16.16 0 0 1-.008-.086c.005-.03.015-.054.056-.113l1.306-1.874A5.742 5.742 0 0 1 2.44 9.58L.193 9.177c-.07-.012-.095-.023-.12-.04a.16.16 0 0 1-.054-.066C.006 9.044 0 9.018 0 8.947V7.053c0-.071.006-.097.019-.124a.16.16 0 0 1 .055-.066c.024-.017.048-.028.119-.04L2.44 6.42c.123-.435.296-.849.512-1.235L1.647 3.312c-.04-.059-.05-.084-.056-.113a.16.16 0 0 1 .008-.085c.01-.028.024-.05.074-.101l1.34-1.34c.05-.05.073-.064.1-.074A.16.16 0 0 1 3.2 1.59c.03.005.054.015.113.056l1.874 1.306zM8 10.667a2.667 2.667 0 1 0 0-5.334 2.667 2.667 0 0 0 0 5.334z" opacity=".8"/></svg>