<svg height="24" viewBox="0 0 24 24" width="24" xmlns="http://www.w3.org/2000/svg"><g fill="none" fill-rule="evenodd" transform=""><path d="m0 0h24v24h-24z" fill-rule="nonzero"/><path d="m11.5 4c4.1421356 0 7.5 3.35786438 7.5 7.5 0 1.7466507-.5970719 3.3538478-1.5982479 4.6286233l3.334644 3.3349806c.3514719.3514719.3514719.9213203 0 1.2727922-.3221825.3221825-.8278621.3490311-1.1806275.0805456l-.0921647-.0805456-3.3349806-3.334644c-1.2747755 1.001176-2.8819726 1.5982479-4.6286233 1.5982479-4.14213562 0-7.5-3.3578644-7.5-7.5 0-4.14213562 3.35786438-7.5 7.5-7.5zm0 1.8c-3.14802307 0-5.7 2.55197693-5.7 5.7 0 3.1480231 2.55197693 5.7 5.7 5.7 3.1480231 0 5.7-2.5519769 5.7-5.7 0-3.14802307-2.5519769-5.7-5.7-5.7z" fill="#828a99"/></g></svg>