<svg height="48" viewBox="0 0 48 48" width="48" xmlns="http://www.w3.org/2000/svg"><g fill="none" fill-rule="evenodd" transform="matrix(-1 0 0 1 48 0)"><path d="m0 0h48v48h-48z"/><path d="m4 24c0-11.045695 8.954305-20 20-20s20 8.954305 20 20-8.954305 20-20 20-20-8.954305-20-20zm20 18c9.9411255 0 18-8.0588745 18-18 0-4.7379189-1.8305371-9.048293-4.8229481-12.2624591l-25.439511 25.439511c3.2141661 2.992411 7.5245402 4.8229481 12.2624591 4.8229481zm-18-18c0 4.4832248 1.63902021 8.5836359 4.3505397 11.7347123l25.3841726-25.3841726c-3.1510764-2.71151949-7.2514875-4.3505397-11.7347123-4.3505397-9.9411255 0-18 8.0588745-18 18z" fill="#afbac6" fill-rule="nonzero"/></g></svg>