<svg height="24" viewBox="0 0 24 24" width="24" xmlns="http://www.w3.org/2000/svg"><g fill="none" fill-rule="evenodd"><path d="m0 0h24v24h-24z"/><path d="m12 2c2.209139 0 4 1.790861 4 4v1.5h1.5c1.5976809 0 2.9036609 1.24891996 2.9949073 2.8237272l.0050927.1762728v7c0 1.5976809-1.24892 2.9036609-2.8237272 2.9949073l-.1762728.0050927h-11c-1.59768088 0-2.90366088-1.24892-2.99490731-2.8237272l-.00509269-.1762728v-7c0-1.59768088 1.24891996-2.90366088 2.82372721-2.99490731l.17627279-.00509269h1.5v-1.5c0-2.209139 1.790861-4 4-4zm5.5 7h-11c-.77969612 0-1.42044868.59488808-1.49313342 1.35554l-.00686658.14446v7c0 .7796961.59488808 1.4204487 1.35553999 1.4931334l.14446001.0068666h11c.7796961 0 1.4204487-.5948881 1.4931334-1.35554l.0068666-.14446v-7c0-.82842712-.6715729-1.5-1.5-1.5zm-5.5 2c1.1045695 0 2 .8954305 2 2 0 .8389669-.5165775 1.5572807-1.2490112 1.8542202l-.0009888 1.3910801c0 .4142136-.3357864.75-.75.75-.3796958 0-.693491-.2821539-.7431534-.6482294l-.0068466-.1017706.0000152-1.3906734c-.7329657-.2966899-1.2500152-1.0152767-1.2500152-1.8546269 0-1.1045695.8954305-2 2-2zm0-7.5c-1.3254834 0-2.41003867 1.03153594-2.49468232 2.33562431l-.00531768.16437569v1.5h5v-1.5c0-1.3254834-1.0315359-2.41003867-2.3356243-2.49468232z" fill="#afbac6" fill-rule="nonzero"/></g></svg>