<svg height="48" viewBox="0 0 48 48" width="48" xmlns="http://www.w3.org/2000/svg"><g fill="none" fill-rule="evenodd"><path d="m0 0h48v48h-48z"/><path d="m24 4c5.4292399 0 9.8479317 4.32667079 9.9961582 9.7200952l.0038418.2799048.0023647 3.002624c1.9077158.0253689 2.8916332.2380449 3.9113484.7833946.9890833.5289675 1.7713008 1.311185 2.3002683 2.3002683.5526055 1.0332824.7636261 2.0298082.7843081 3.9879875l.0017105.3354386v12.180574c0 2.1830063-.2027128 3.2327391-.7860186 4.3234261-.5289675.9890833-1.311185 1.7713008-2.3002683 2.3002683-1.0332824.5526055-2.0298082.7636261-3.9879875.7843081l-.3354386.0017105h-19.180574c-2.1830063 0-3.2327391-.2027128-4.3234261-.7860186-.98908331-.5289675-1.77130081-1.311185-2.30026834-2.3002683-.55260549-1.0332824-.7636261-2.0298082-.78430803-3.9879875l-.00171053-.3354386.00171053-12.5160126c.02068193-1.9581793.23170254-2.9547051.78430803-3.9879875.52896753-.9890833 1.31118503-1.7713008 2.30026834-2.3002683 1.0199241-.5454614 2.0040358-.7581129 3.9125213-.7834102l.0011918-3.0026084c0-5.5228475 4.4771525-10 10-10zm9.590287 15-19.4682555.0012019c-1.6711255.0145291-2.3712833.1627071-3.0925469.5484431-.6405463.3425679-1.13727171.8392933-1.47983964 1.4798396-.38573601.7212636-.53391395 1.4214214-.54844311 3.0925469l-.00120185.2876815v12.180574c0 1.8810769.14247918 2.6188946.54964496 3.3802284.34256793.6405463.83929334 1.1372717 1.47983964 1.4798396.6386188.3415371 1.2606915.4968376 2.5548495.5380283l.2679968.006738.5573821.0048787h19.180574c1.8810769 0 2.6188946-.1424792 3.3802284-.549645.6405463-.3425679 1.1372717-.8392933 1.4798396-1.4798396.3415371-.6386188.4968376-1.2606915.5380283-2.5548495l.006738-.2679968.0048787-.5573821v-12.180574c0-1.8810769-.1424792-2.6188946-.549645-3.3802284-.3425679-.6405463-.8392933-1.1372717-1.4798396-1.4798396-.7613338-.4071658-1.4991515-.549645-3.3802284-.549645zm-9.590287 6c1.6568542 0 3 1.3431458 3 3 0 1.3058822-.8343774 2.4168852-1.9990993 2.8289758l-.0009007 4.1710242c0 .5522847-.4477153 1-1 1s-1-.4477153-1-1l.0000889-4.1706743c-1.1652388-.4118113-2.0000889-1.5230736-2.0000889-2.8293257 0-1.6568542 1.3431458-3 3-3zm0-19c-4.3349143 0-7.8645429 3.44783777-7.9961932 7.7508207l-.0038068.2491793v3h16v-3c0-4.25155053-3.3165037-7.72849011-7.5035389-7.98484646l-.2472818-.01134672z" fill="#afbac6" fill-rule="nonzero"/></g></svg>