<svg height="24" viewBox="0 0 24 24" width="24" xmlns="http://www.w3.org/2000/svg"><g fill="none" fill-rule="evenodd"><path d="m0 0h24v24h-24z" opacity=".1"/><path d="m9 5.1h4c2.7061953 0 4.9 2.19380473 4.9 4.9 0 2.7061953-2.1938047 4.9-4.9 4.9h-3.1v2.2h3.1c.4970563 0 .9.4029437.9.9s-.4029437.9-.9.9h-3.1v1.1c0 .4970563-.40294373.9-.9.9s-.9-.4029437-.9-.9v-1.1h-1.1c-.49705627 0-.9-.4029437-.9-.9s.40294373-.9.9-.9h1.1v-2.2h-1.1c-.49705627 0-.9-.4029437-.9-.9s.40294373-.9.9-.9h1.1v-7.1c0-.49705627.40294373-.9.9-.9zm.9 1.8v6.2h3.1c1.7120827 0 3.1-1.3879173 3.1-3.1 0-1.71208272-1.3879173-3.1-3.1-3.1z" fill="#828a99" fill-rule="nonzero"/></g></svg>