<svg height="56" viewBox="0 0 56 56" width="56" xmlns="http://www.w3.org/2000/svg"><g fill="none" fill-rule="evenodd"><path d="m0 0h56v56h-56z"/><path d="m28 4c4.0796344 0 7.4460359 3.05371356 7.9381123 7.0000487l10.5618877-.0000487c.8284271 0 1.5.6715729 1.5 1.5s-.6715729 1.5-1.5 1.5h-2.72l-2.4285799 33.1972592c-.1247188 1.7044891-.3360415 2.311563-.6999837 2.920012-.3639423.6084491-.870323 1.0791313-1.5037086 1.3977012-.6333857.3185699-1.2542624.4850276-2.9633082.4850276h-16.3688392c-1.7090458 0-2.3299225-.1664577-2.9633082-.4850276-.6333856-.3185699-1.1397663-.7892521-1.5037086-1.3977012-.3639422-.608449-.5752649-1.2155229-.6999837-2.920012l-2.4295799-33.1972592h-2.719c-.82842712 0-1.5-.6715729-1.5-1.5s.67157288-1.5 1.5-1.5l10.5618877.0000487c.4920764-3.94633514 3.8584779-7.0000487 7.9381123-7.0000487zm12.772 10h-25.545l2.4135811 32.9783323c.0826343 1.1293351.1442109 1.367659.2825631 1.5989601.0715891.1196847.1525293.1949188.2771192.257583.225732.113535.4526955.1593209 1.4132153.1646007l16.5709409.0005239c1.1323542 0 1.3745362-.0440206 1.615317-.1651246.1245899-.0626642.2055301-.1378983.2771192-.257583.1383522-.2313011.1999288-.469625.2825631-1.5989601zm-12.772 6c.8284271 0 1.5.6715729 1.5 1.5v18c0 .8284271-.6715729 1.5-1.5 1.5s-1.5-.6715729-1.5-1.5v-18c0-.8284271.6715729-1.5 1.5-1.5zm6.9385865.0011523.1446185.0011572c.8271517.0459528 1.4604384.7537439 1.4144855 1.5808955l-1 18c-.0459528.8271517-.7537439 1.4604384-1.5808955 1.4144855-.8271517-.0459528-1.4604384-.7537439-1.4144855-1.5808955l1-18c.0459528-.8271517.7537439-1.4604384 1.5808955-1.4144855zm-14.0217915.0011572c.8271516-.0459529 1.5349427.5873338 1.5808955 1.4144855l1 18c.0459529.8271516-.5873338 1.5349427-1.4144855 1.5808955-.8271516.0459529-1.5349427-.5873338-1.5808955-1.4144855l-1-18c-.0459529-.8271516.5873338-1.5349427 1.4144855-1.5808955zm7.083205-13.0023095c-2.4189579 0-4.4367116 1.71775968-4.8999819 4h9.7999638c-.4632703-2.28224032-2.481024-4-4.8999819-4z" fill="#939393" fill-rule="nonzero"/></g></svg>