<svg height="24" viewBox="0 0 48 24" width="48" xmlns="http://www.w3.org/2000/svg"><g fill="none" fill-rule="evenodd"><g transform="translate(24)"><path d="m0 0h24v24h-24z"/><g fill="#828a99"><path d="m5 11.5046844c0-.2787295.22765279-.5046844.50964952-.5046844h9.49035048v2h-9.49035048c-.28147166 0-.50964952-.214035-.50964952-.5046844zm0-3.99999995c0-.27872953.22563934-.50468445.49374104-.50468445h12.01251796c.2726856 0 .493741.21403503.493741.50468445v.9906311c0 .27872953-.2256393.50468445-.493741.50468445h-12.01251796c-.27268565 0-.49374104-.21403503-.49374104-.50468445zm0 7.99999995c0-.2787295.21505737-.5046844.49047852-.5046844h3.50952148v2h-3.50952148c-.27088381 0-.49047852-.214035-.49047852-.5046844z"/><path d="m12.7071068 15.2928932c-.3905243-.3905243-1.0236893-.3905243-1.4142136 0s-.3905243 1.0236893 0 1.4142136l2 2c.3905243.3905243 1.0236893.3905243 1.4142136 0l7-7c.3905243-.3905243.3905243-1.0236893 0-1.4142136-.3905243-.39052427-1.0236893-.39052427-1.4142136 0l-6.2928932 6.2928932z" fill-rule="nonzero"/></g></g><path d="m0 0h24v24h-24z"/><path d="m5 11.5046844c0-.2787295.23290253-.5046844.50342274-.5046844h6.49657726v2h-6.49657726c-.2780327 0-.50342274-.214035-.50342274-.5046844zm0-3.99999995c0-.27872953.22563934-.50468445.49374104-.50468445h12.01251796c.2726856 0 .493741.21403503.493741.50468445v.9906311c0 .27872953-.2256393.50468445-.493741.50468445h-12.01251796c-.27268565 0-.49374104-.21403503-.49374104-.50468445zm0 7.99999995c0-.2787295.23290253-.5046844.50342274-.5046844h6.49657726v2h-6.49657726c-.2780327 0-.50342274-.214035-.50342274-.5046844zm9.4145192 3.417873c-.2289326.1559598-.4145192.0574758-.4145192-.2184349v-7.4071228c0-.276598.1780482-.3795301.4145192-.2184349l5.3425616 3.6396062c.2289327.1559598.2364711.403685 0 .5647803z" fill="#828a99"/></g></svg>