<svg xmlns="http://www.w3.org/2000/svg" width="32" height="32"><g fill="none" fill-rule="evenodd"><path d="M0 0h32v32H0z" opacity=".1"/><path fill="#ebedf0" d="M12.366 5.495A2.916 2.916 0 0 1 14.913 4h2.167c1.095 0 2.049.603 2.547 1.495h4.619c.693 0 1.254.562 1.254 1.254v.963c0 .16-.13.291-.292.291H6.792a.292.292 0 0 1-.292-.291v-.963c0-.692.561-1.254 1.254-1.254zM7.746 9h16.5l-1.333 16.32A2.917 2.917 0 0 1 20.006 28h-8.018a2.917 2.917 0 0 1-2.907-2.68zm8.25 2.5a.583.583 0 0 0-.583.583v12.334a.583.583 0 1 0 1.167 0V12.083a.583.583 0 0 0-.583-.583zm3.5 0a.61.61 0 0 0-.608.583l-.533 12.334a.559.559 0 0 0 .558.583.61.61 0 0 0 .609-.583l.533-12.334a.559.559 0 0 0-.558-.583zm-7 0a.559.559 0 0 0-.557.583l.532 12.334a.61.61 0 0 0 .633.582.559.559 0 0 0 .534-.582l-.533-12.334a.61.61 0 0 0-.608-.583z"/></g></svg>