<svg height="24" viewBox="0 0 24 24" width="24" xmlns="http://www.w3.org/2000/svg"><g fill="none" fill-rule="evenodd"><path d="m0 0h24v24h-24z" opacity=".9"/><path d="m12 2c5.5228475 0 10 4.4771525 10 10s-4.4771525 10-10 10-10-4.4771525-10-10 4.4771525-10 10-10zm0 1.5c-4.69442037 0-8.5 3.80557963-8.5 8.5 0 4.6944204 3.80557963 8.5 8.5 8.5 4.6944204 0 8.5-3.8055796 8.5-8.5 0-4.69442037-3.8055796-8.5-8.5-8.5zm0 3.25c.3796958 0 .693491.28215388.7431534.64822944l.0068466.10177056v4.689l2.6087572 2.609097c.2928932.2928933.2928932.767767 0 1.0606602-.2662666.2662666-.6829302.2904726-.9765417.0726182l-.0841185-.0726182-2.8284271-2.8284271-.0194222-.0201564c-.0173244-.0186597-.0337104-.0382029-.0490829-.0585544l.0685051.0787108c-.034441-.034441-.0648321-.0713983-.0911733-.1102801-.0110353-.0163919-.0216836-.0335419-.0316416-.0511342-.0081531-.0142914-.0157966-.0289249-.0229246-.0437443-.0084854-.0176576-.0164809-.0360773-.0237418-.0548626-.0041601-.0108524-.0078856-.0212176-.0113757-.0316442-.0072336-.0213812-.013642-.0438375-.0190049-.0666966-.0027933-.012242-.0052322-.0239353-.0073899-.0356701-.0020682-.0108448-.0039591-.0226419-.0055715-.0345274l-.0028659-.0243666c-.0020564-.0199359-.0033161-.0399385-.003779-.059956l-.0002017-.017448v-5c0-.41421356.3357864-.75.75-.75z" fill="#afbac6" fill-rule="nonzero"/></g></svg>