<svg height="24" viewBox="0 0 24 24" width="24" xmlns="http://www.w3.org/2000/svg"><g fill="none" fill-rule="evenodd"><path d="m0 0h24v24h-24z" opacity=".4"/><path d="m11.6309148 21c-1.7413336 0-3.26119222-.352047-4.55962142-1.0561514-1.29842921-.7041045-2.30157375-1.7034636-3.00946373-2.9981073-.70788997-1.2946437-1.06182965-2.8195253-1.06182965-4.5457169v-.6000366c0-1.7186206.36908148-3.25423981 1.10725552-4.58673859.73817404-1.33249877 1.77538764-2.36781965 3.11167192-3.10599369 1.33628429-.73817404 2.95456556-1.10725552 4.67318616-1.10725552 1.6050553 0 3.041634.33122697 4.3097791.99369085 1.2681452.66246388 2.2599334 1.57854305 2.9753944 2.74826499.715461 1.16972193 1.0731861 2.49652254 1.0731861 3.98044166v.5678233c0 1.0145161-.1665599 1.911668-.4996846 2.6914827-.3331247.7798146-.7987351 1.3873795-1.3968454 1.8227129-.5981102.4353334-1.2870623.7455714-2.066877.7455714-.7041044 0-1.2533138-.1673889-1.7870662-.5499878s-.7908517-.7167563-.9384858-1.1438486h-.1135647c-.0832811.2952696-.249841.5659294-.4996845.8119874s-.5545724.439116-.9141956.5791798-.6403766.2100946-1.0340694.2100946c-.6208233 0-1.13814362-.151418-1.59997559-.4542586-.46183196-.3028407-.8002053-.7428872-1.05004882-1.3031424s-.34997559-1.2353274-.34997559-2v-1.1000366c0-.7419596.06631726-1.397267.31994629-1.94995119.25362903-.55268415.60688964-.98314596 1.08007812-1.27841558.47318849-.29526961.96401029-.37160883 1.59997559-.37160883.5602552 0 1.0246036.06687559 1.4485804.34321767.4239769.27634207.7041003.63785265.8403786 1.08454258h.0908517v-.29526814c0-.30284063.0707476-.58296441.23731-.76088328.1665623-.17791887.3051416-.22712933.5928402-.22712933.2801276 0 .4534328.0889581.6199952.26687697.1665623.17791887.1700439.41829501.1700439.72113564v4.66888089c0 .3861218.1453034.5683419.3800049.7992579s.6414687.3993691 1.0200195.3993691c.4012639 0 .8971106-.1895884 1.1999512-.5s.5872231-.7700287.75-1.3416404c.1627768-.5716117.2000732-1.2397438.2000732-2.0044164v-.3747634c0-1.18864947-.3304876-2.25236123-.8945283-3.19116718-.5640407-.93880596-1.347629-1.67318347-2.3507886-2.20315458-1.0031596-.5299711-2.1406877-.79495268-3.4126183-.79495268-1.3779249 0-2.6876919.30283609-3.7476341.90851735-1.05994221.60568126-1.88327783 1.45930049-2.47003155 2.56088328-.58675372 1.1015828-.87439912 2.40979641-.87439912 3.84071841v.3999634c0 1.423351.27818177 2.7170415.84600795 3.7883403.56782619 1.0712987 1.37223454 1.896527 2.41324921 2.4757098 1.04101467.5791827 2.25425171.8687697 3.63974761.8687697h.0908518c.514829 0 .945422-.0192546 1.7100946-.1328198.4000244-.0547941.4894104-.0923214.6999512-.1170225.2105407-.0247011.4385681.0434391.6000976.1987382.1615296.1552991.1999512.3139035.1999512.5183209s-.0589175.3561507-.1800537.5c-.1211363.1438493-.2696076.2507324-.5198975.3160639-.7338464.191551-1.4237024.2839117-2.5669258.2839117zm-1.8809148-8.5329059c0 .7625395.14563999 1.3419853.4369243 1.7383548.2912844.3963695.7206387.5945513 1.2880757.5945513.5598713 0 .9873341-.190632 1.2824014-.5719017.2950672-.3812698.4425986-.9342913.4425986-1.6590813v-.9173077c0-.6643908-.1569885-1.1891007-.4709704-1.5741454-.3139818-.38504465-.7395532-.5775641-1.2767269-.5775641-.5371738 0-.9551795.20195668-1.2540297.6058761-.29885015.4039194-.448273.9682656-.448273 1.6930556z" fill="#828a99"/></g></svg>