<svg height="37" viewBox="0 0 16 37" width="16" xmlns="http://www.w3.org/2000/svg"><g fill="none" fill-rule="evenodd"><g transform="translate(-4 -6)"><path d="m0 0h24v24h-24z"/><path d="m5.70710678 12.2928932c-.39052429-.3905243-1.02368927-.3905243-1.41421356 0s-.39052429 1.0236893 0 1.4142136l4 4c.39052429.3905243 1.02368927.3905243 1.41421356 0l10.00000002-10.00000002c.3905243-.39052429.3905243-1.02368927 0-1.41421356s-1.0236893-.39052429-1.4142136 0l-9.2928932 9.29289318z" fill="#828a99" fill-rule="nonzero"/></g><g transform="translate(-4 18)"><path d="m0 0h24v24h-24z"/><path d="m11.000061 11h-5.000061c-.55228475 0-1 .4477153-1 1s.44771525 1 1 1h5.000061v5c0 .5522847.4477153 1 1 1 .5522848 0 1-.4477153 1-1v-5h4.999939c.5522847 0 1-.4477153 1-1s-.4477153-1-1-1h-4.999939v-5c0-.55228475-.4477152-1-1-1-.5522847 0-1 .44771525-1 1z" fill="#828a99" fill-rule="nonzero"/></g></g></svg>