<svg height="56" viewBox="0 0 56 56" width="56" xmlns="http://www.w3.org/2000/svg"><g fill="none" fill-rule="evenodd"><path d="m0 0h56v56h-56z"/><path d="m28 4.99999695c5.5228475 0 10 4.4771525 10 9.99999995l.0017546 6.0280515c1.4162418.0784966 2.3747256.3302458 3.3667334.8607774 1.1746573.6282136 2.1144726 1.5680289 2.7426862 2.7426862.6603986 1.2348382.8888258 2.417731.8888258 4.4962584v11.7444592c0 2.0785274-.2284272 3.2614202-.8888258 4.4962584-.6282136 1.1746573-1.5680289 2.1144726-2.7426862 2.7426862-1.2348382.6603986-2.417731.8888258-4.4962584.8888258h-17.7444592c-2.0785274 0-3.2614202-.2284272-4.4962584-.8888258-1.1746573-.6282136-2.1144726-1.5680289-2.7426862-2.7426862-.6603986-1.2348382-.8888258-2.417731-.8888258-4.4962584v-11.7444592c0-2.0785274.2284272-3.2614202.8888258-4.4962584.6282136-1.1746573 1.5680289-2.1144726 2.7426862-2.7426862.9922429-.5306573 1.9509458-.7824001 3.3677403-.8608331l.0007477-6.0279958c0-5.52284745 4.4771525-9.99999995 10-9.99999995zm8.8722296 19.00000305h-17.7444592c-1.7830375 0-2.42961.1856512-3.0814618.5342654-.6518519.3486142-1.163429.8601913-1.5120432 1.5120432-.3486142.6518518-.5342654 1.2984243-.5342654 3.0814618v11.7444592c0 1.7830375.1856512 2.42961.5342654 3.0814618.3486142.6518519.8601913 1.163429 1.5120432 1.5120432.6518518.3486142 1.2984243.5342654 3.0814618.5342654h17.7444592c1.7830375 0 2.42961-.1856512 3.0814618-.5342654.6518519-.3486142 1.163429-.8601913 1.5120432-1.5120432.3486142-.6518518.5342654-1.2984243.5342654-3.0814618v-11.7444592c0-1.7830375-.1856512-2.42961-.5342654-3.0814618-.3486142-.6518519-.8601913-1.163429-1.5120432-1.5120432-.6518518-.3486142-1.2984243-.5342654-3.0814618-.5342654zm-8.8722296 6c1.6568542 0 3 1.3431458 3 3 0 1.3058822-.8343774 2.4168852-1.9990993 2.8289758l-.0009007 3.1710242c0 .5522847-.4477153 1-1 1s-1-.4477153-1-1l.0000889-3.1706743c-1.1652388-.4118113-2.0000889-1.5230736-2.0000889-2.8293257 0-1.6568542 1.3431458-3 3-3zm0-22.00000305c-3.8659932 0-7 3.13400675-7 6.99999995v6h14v-6c0-3.8659932-3.1340068-6.99999995-7-6.99999995z" fill="#939393" fill-rule="nonzero"/></g></svg>