<svg xmlns="http://www.w3.org/2000/svg" width="11" height="13"><path fill="#A5ABB4" fill-rule="evenodd" d="M2 5V3.5a3.5 3.5 0 1 1 7 0V5h.718c.446 0 .607.046.77.134.163.087.291.215.378.378.088.163.134.324.134.77v5.436c0 .446-.046.607-.134.77a.909.909 0 0 1-.378.378c-.163.088-.324.134-.77.134H1.282c-.446 0-.607-.046-.77-.134a.909.909 0 0 1-.378-.378c-.088-.163-.134-.324-.134-.77V6.282c0-.446.046-.607.134-.77a.909.909 0 0 1 .378-.378C.675 5.046.836 5 1.282 5H2zm3.5-3A1.5 1.5 0 0 0 4 3.5V5h3V3.5A1.5 1.5 0 0 0 5.5 2z"/></svg>