<svg width="26" height="26" xmlns="http://www.w3.org/2000/svg">
  <path d="M13 26c7.18 0 13-5.82 13-13S20.18 0 13 0 0 5.82 0 13s5.82 13 13 13zm0-20.2c1.757 0 3.144.594 4.425 1.743 1.262 1.132 1.975 2.676 1.975 4.29l-.01 5.273c-.072.942-.733 1.64-1.694 1.64s-1.216-.654-2.038-.52c-.822.133-1.13 1.174-2.658 1.174s-1.867-1.046-2.658-1.174c-.822-.134-1.077.52-2.038.52-.925 0-1.646-.656-1.694-1.64l-.01-5.272c0-1.615.713-3.16 1.975-4.291C9.802 6.442 11.243 5.8 13 5.8zm2.28 8.686a.604.604 0 00-.887-.156c-.774.605-1.59.605-2.383.233-.2-.094-.34-.184-.403-.233l-.068-.046a.605.605 0 00-.82.202.727.727 0 00.145.962c.133.104.351.244.642.38 1.168.547 2.443.547 3.63-.38a.727.727 0 00.144-.962zM10.4 10.6a1 1 0 100 2 1 1 0 000-2zm4.47.766c-.143.073-.251.149-.322.21a.524.524 0 00-.042.765.59.59 0 00.747.082l.056-.042a.657.657 0 01.1-.062c.183-.093.335-.103.504.017l.058.045c.233.2.593.182.803-.04a.524.524 0 00-.042-.766c-.597-.512-1.275-.512-1.863-.21z" fill="#3F8AE0"/>
</svg>