<svg height="16" viewBox="0 0 16 16" width="16" xmlns="http://www.w3.org/2000/svg"><g fill="none"><path d="m0 0h16v16h-16z" opacity=".221763"/><g fill="#7293b6"><path d="m14 9v-2h-.5c0-3.03756612-2.4624339-5.5-5.5-5.5-3.03756612 0-5.5 2.46243388-5.5 5.5h-.5v2h-1v-2c0-3.86599325 3.13400675-7 7-7 3.8659932 0 7 3.13400675 7 7v2z"/><path d="m13.9 6c.7731986 0 1.4.62680135 1.4 1.4v2.7c0 .7731986-.6268014 1.4-1.4 1.4s-1.4-.6268014-1.4-1.4v-2.7c0-.77319865.6268014-1.4 1.4-1.4z"/><path d="m2.1 6c.77319865 0 1.4.62680135 1.4 1.4v2.7c0 .7731986-.62680135 1.4-1.4 1.4s-1.4-.6268014-1.4-1.4v-2.7c0-.77319865.62680135-1.4 1.4-1.4z" transform="matrix(-1 0 0 1 4.2 0)"/></g><path d="m8 4c-1.51878306 0-2.75 1.23121694-2.75 2.75v4c0 1.5187831 1.23121694 2.75 2.75 2.75s2.75-1.2312169 2.75-2.75v-4c0-1.51878306-1.23121694-2.75-2.75-2.75z" stroke="#7293b6" stroke-width="1.5"/><g fill="#7293b6"><path d="m5 9.25h1.75c.41421356 0 .75.33578644.75.75 0 .4142136-.33578644.75-.75.75h-1.75z"/><path d="m5 6.75h1.75c.41421356 0 .75.33578644.75.75s-.33578644.75-.75.75h-1.75z"/><path d="m9.75 9.25h.75v1.5h-.75c-.41421356 0-.75-.3357864-.75-.75 0-.41421356.33578644-.75.75-.75z"/><path d="m9.75 6.75h.75v1.5h-.75c-.41421356 0-.75-.33578644-.75-.75s.33578644-.75.75-.75z"/><path d="m7.25 13h1.5v1.75c0 .4142136-.33578644.75-.75.75s-.75-.3357864-.75-.75z"/></g></g></svg>