<svg height="16" viewBox="0 0 16 16" width="16" xmlns="http://www.w3.org/2000/svg"><g fill="none" fill-rule="evenodd"><path d="m0 0h16v16h-16z"/><path d="m5.02555408 3h.94889184c.3566075 0 .48592199.03713024.61629236.10685308s.2326858.17203827.30240864.30240864.10685308.25968486.10685308.61629236v7.94889182c0 .3566075-.03713024.485922-.10685308.6162924s-.17203827.2326858-.30240864.3024086c-.13037037.0697229-.25968486.1068531-.61629236.1068531h-.94889184c-.3566075 0-.48592199-.0371302-.61629236-.1068531-.13037037-.0697228-.2326858-.1720382-.30240864-.3024086s-.10685308-.2596849-.10685308-.6162924v-7.94889182c0-.3566075.03713024-.48592199.10685308-.61629236s.17203827-.2326858.30240864-.30240864.25968486-.10685308.61629236-.10685308zm5.00000002 0h.9488918c.3566075 0 .485922.03713024.6162924.10685308s.2326858.17203827.3024086.30240864c.0697229.13037037.1068531.25968486.1068531.61629236v7.94889182c0 .3566075-.0371302.485922-.1068531.6162924-.0697228.1303704-.1720382.2326858-.3024086.3024086-.1303704.0697229-.2596849.1068531-.6162924.1068531h-.9488918c-.35660752 0-.48592201-.0371302-.61629238-.1068531-.13037037-.0697228-.2326858-.1720382-.30240864-.3024086s-.10685308-.2596849-.10685308-.6162924v-7.94889182c0-.3566075.03713024-.48592199.10685308-.61629236s.17203827-.2326858.30240864-.30240864.25968486-.10685308.61629238-.10685308z" fill="#000" fill-rule="nonzero"/></g></svg>