<svg height="56" viewBox="0 0 56 56" width="56" xmlns="http://www.w3.org/2000/svg"><g fill="none" fill-rule="evenodd"><path d="m0 0h56v56h-56z"/><path d="m28 4c13.254834 0 24 10.745166 24 24s-10.745166 24-24 24-24-10.745166-24-24 10.745166-24 24-24zm0 3c-11.5979797 0-21 9.4020203-21 21s9.4020203 21 21 21 21-9.4020203 21-21-9.4020203-21-21-21zm-1.3388122 21.6771632-.0226012-.0471422c-.0087587-.0189697-.0171162-.0381089-.0250687-.0574035-.0306609-.0733684-.0552794-.1494781-.0737336-.2279648-.0024198-.0116963-.0050328-.0233762-.0075069-.035087-.0051697-.0232345-.0094756-.0464898-.0132386-.0699266-.0037665-.0242636-.0071578-.0489579-.0099354-.0737389-.0060359-.054639-.0091034-.1099114-.0091034-.1659002l.0038021.1087872c-.0013554-.0184118-.0023726-.0368611-.0030489-.055338l-.0007532-9.5534492c0-.8284271.6715729-1.5 1.5-1.5s1.5.6715729 1.5 1.5v8.634l8.7762794 5.0669619c.6752367.3898481.9327006 1.2254125.6153215 1.9204988l-.0662834.1285393c-.4142135.7174389-1.3315991.9632517-2.0490381.5490381l-9.5262794-5.5c-.0101146-.0058397-.0201355-.0117793-.030062-.0178171-.0192457-.0114988-.0380642-.0235681-.0565893-.0360399-.0167128-.0113184-.0332712-.0229099-.0495306-.0347835-.0188391-.0138503-.0372572-.0280285-.0553297-.0426177-.0219424-.0174385-.0431454-.0354974-.0637471-.0540555-.0099753-.0094076-.0201351-.0188393-.0301626-.0284085-.0223235-.0207942-.0435195-.0422644-.0639773-.0642776-.010924-.0123277-.0221776-.024847-.0332209-.037554-.019493-.0218736-.037665-.0440867-.0551405-.0667463-.0124497-.0166207-.0251194-.0337372-.0374281-.0511273-.0137215-.0190444-.0265424-.0381527-.038899-.0575175-.0094397-.0149615-.0188514-.0302436-.0279935-.0457041-.011515-.0195073-.0225012-.0391723-.0330298-.0590541z" fill="#939393" fill-rule="nonzero"/></g></svg>