<svg height="24" viewBox="0 0 24 24" width="24" xmlns="http://www.w3.org/2000/svg"><g fill="none" fill-rule="evenodd"><path d="m0 0h24v24h-24z" opacity=".4"/><path d="m8.4867991 3.1h7.0264018c1.5582973 0 2.3243018.14792229 3.1207181.57385035.727212.38891723 1.3033134.9650187 1.6922306 1.6922307.4259281.79641623.5738504 1.56242072.5738504 3.12071805v7.0264018c0 1.5582973-.1479223 2.3243018-.5738504 3.1207181-.3889172.727212-.9650186 1.3033134-1.6922306 1.6922306-.7964163.4259281-1.5624208.5738504-3.1207181.5738504h-7.0264018c-1.55829733 0-2.32430182-.1479223-3.12071805-.5738504-.727212-.3889172-1.30331347-.9650186-1.6922307-1.6922306-.42592806-.7964163-.57385035-1.5624208-.57385035-3.1207181v-7.0264018c0-1.55829733.14792229-2.32430182.57385035-3.12071805.38891723-.727212.9650187-1.30331347 1.6922307-1.6922307.79641623-.42592806 1.56242072-.57385035 3.12071805-.57385035zm0 1.8c-1.28656086 0-1.77184176.09371206-2.27184011.36111411-.41352874.22115759-.73268729.54031614-.95384488.95384488-.26740205.49999835-.36111411.98527925-.36111411 2.27184011v7.0264018c0 1.2865609.09371206 1.7718418.36111411 2.2718401.22115759.4135288.54031614.7326873.95384488.9538449.49999835.267402.98527925.3611141 2.27184011.3611141h7.0264018c1.2865609 0 1.7718418-.0937121 2.2718401-.3611141.4135288-.2211576.7326873-.5403161.9538449-.9538449.267402-.4999983.3611141-.9852792.3611141-2.2718401v-7.0264018c0-1.28656086-.0937121-1.77184176-.3611141-2.27184011-.2211576-.41352874-.5403161-.73268729-.9538449-.95384488-.4999983-.26740205-.9852792-.36111411-2.2718401-.36111411zm-.9867991 7.1c0-2.48549377 2.01450623-4.5 4.5-4.5 2.4854938 0 4.5 2.01450623 4.5 4.5 0 2.4854938-2.0145062 4.5-4.5 4.5-2.48549377 0-4.5-2.0145062-4.5-4.5zm1.8 0c0 1.4913812 1.2086188 2.7 2.7 2.7s2.7-1.2086188 2.7-2.7-1.2086188-2.7-2.7-2.7-2.7 1.2086188-2.7 2.7z" fill="#828a99" fill-rule="nonzero"/></g></svg>