<svg height="16" viewBox="0 0 16 16" width="16" xmlns="http://www.w3.org/2000/svg"><g fill="none" fill-rule="evenodd"><path d="m0 0h16v16h-16z"/><path d="m4.17643862 2.97643862 1.33654021 1.33654021c.19526214.19526214.19526214.51184463 0 .70710678-.07368865.07368865-.16856032.12251131-.2713539.13964357l-4.35114918.72519153c-.27238516.04539753-.52999893-.13861231-.57539646-.41099747-.00907072-.0544243-.00907072-.10997468 0-.16439899l.72519153-4.35114918c.04539753-.27238516.3030113-.45639499.57539646-.41099747.10279358.01713227.19766524.06595492.27135389.13964357l1.22579253 1.22579253c3.044289-2.66436375 7.6761083-2.54532751 10.5785445.35710875 3.0265633 3.02656326 3.0265633 7.93359185 0 10.96015515-2.6465564 2.6465564-6.79057244 3.0118919-9.84583826.924786-.34202757-.2336451-.42988895-.70032-.19624388-1.0423476.23364506-.3420275.70031994-.4298889 1.04234751-.1962438 2.46222774 1.6819912 5.80491953 1.3873002 7.93907453-.7468548 2.4407768-2.44077684 2.4407768-6.39805796 0-8.83883478-2.3163898-2.31638981-5.99865412-2.43443781-8.45425948-.354144zm4.62356138 5.38588823 2.4084841.90029784c.4654083.17397087.7012132.69108549.5266851 1.15500781-.1745281.4639223-.693299.6989744-1.1587073.5250036l-2.992473-1.1185945c-.35127335-.13130693-.5839889-.4660434-.5839889-.84000569v-4.08690945c0-.49546926.40294373-.89712646.9-.89712646s.9.4016572.9.89712646z" fill="#93a3bc" opacity=".7"/></g></svg>