<svg height="14" viewBox="0 0 14 14" width="14" xmlns="http://www.w3.org/2000/svg" xmlns:xlink="http://www.w3.org/1999/xlink"><mask id="a" fill="#fff"><path d="m0 0h16v16h-16z" fill="#fff" fill-rule="evenodd"/></mask><path d="m8 15a7 7 0 1 1 0-14 7 7 0 0 1 0 14zm-3-7a1 1 0 1 0 0-2 1 1 0 0 0 0 2zm.725 2.23c-.358.297-.57.615-.67.864-.123.308-.052.906.323.906h5.249c.348 0 .445-.598.322-.906-.1-.249-.312-.567-.67-.865-.553-.46-1.306-.729-2.277-.729-.97 0-1.723.269-2.277.73zm5.275-2.23a1 1 0 1 0 0-2 1 1 0 0 0 0 2z" fill="#c0c4cc" mask="url(#a)" transform="translate(-1 -1)"/></svg>