<svg height="11" viewBox="0 0 11 11" width="11" xmlns="http://www.w3.org/2000/svg"><path d="m1 2.50639765v5.9872047c0 .82993488.66766222 1.50639765 1.4912653 1.50639765h6.0174694c.82872093 0 1.4912653-.6744372 1.4912653-1.50639765v-5.9872047c0-.82993488-.66766222-1.50639765-1.4912653-1.50639765h-6.0174694c-.82872093 0-1.4912653.6744372-1.4912653 1.50639765zm4 2.49360235v-1h2v-1h-2-1v2 1 2h1 2v-1h-2v-1h2v-1zm-5-2.49360235c0-1.38326294 1.10921669-2.50639765 2.4912653-2.50639765h6.0174694c1.3776788 0 2.4912653 1.12593123 2.4912653 2.50639765v5.9872047c0 1.38326294-1.10921669 2.50639765-2.4912653 2.50639765h-6.0174694c-1.3776788 0-2.4912653-1.12593123-2.4912653-2.50639765z" fill="#909499"/></svg>