<svg height="48" viewBox="0 0 48 48" width="48" xmlns="http://www.w3.org/2000/svg"><g fill="none" fill-rule="evenodd"><path d="m0 0h48v48h-48z" transform="matrix(-1 0 0 1 48 0)"/><path d="m24 4c11.045695 0 20 8.954305 20 20s-8.954305 20-20 20-20-8.954305-20-20 8.954305-20 20-20zm0 2c-9.9411255 0-18 8.0588745-18 18s8.0588745 18 18 18 18-8.0588745 18-18-8.0588745-18-18-18zm0 6c.5522847 0 1 .4477153 1 1v10.585l5.363961 5.3647475c.3905243.3905243.3905243 1.0236892 0 1.4142135s-1.0236892.3905243-1.4142135 0l-5.6568543-5.6568542-.0728932-.0821068-.0236654-.0296934c-.0178445-.0241759-.0346159-.0490316-.0502672-.0746464l-.0213962-.0365981c-.0108773-.0197682-.0212946-.0401707-.0310174-.060963l-.0224283-.0517631c-.0079098-.0197568-.015103-.0395383-.0216788-.0595996-.004818-.0148851-.009449-.0302731-.0137016-.0457434-.0060115-.0215565-.0112053-.0432469-.0156799-.0651989-.003463-.0174188-.0065371-.0348451-.0091474-.0523272-.0029168-.0190465-.0052698-.038772-.0070403-.0586651-.0020825-.0238069-.0033426-.0471208-.0037914-.0704473-.0001248-.0064459-.0001861-.012893-.0001861-.0193545v-11c0-.5522847.4477153-1 1-1z" fill="#afbac6" fill-rule="nonzero"/></g></svg>