<svg height="24" viewBox="0 0 24 24" width="24" xmlns="http://www.w3.org/2000/svg"><g fill="none"><path d="m0 0h24v24h-24z"/><path d="m9 .1c2.7614237 0 5 2.23857625 5 5h.0541722c1.3372781 0 1.8222075.13923842 2.3110964.40069906.4888888.26146063.8725717.6451435 1.1340323 1.13403238.2614607.48888889.4006991.97381825.4006991 2.31109636v4.8885243c0 2.0890617-.2204608 2.8615824-.6344402 3.6356564-.4139793.7740741-1.0214772 1.381572-1.7955513 1.7955513-.774074.4139794-1.5465947.6344402-3.6356564.6344402h-5.66870418c-2.08906169 0-2.86158239-.2204608-3.63565647-.6344402-.77407407-.4139793-1.38157193-1.0214772-1.79555128-1.7955513-.41397934-.774074-.63444017-1.5465947-.63444017-3.6356564v-4.8885243c0-1.33727811.13923842-1.82220747.40069906-2.31109636.26146064-.48888888.6451435-.87257175 1.13403238-1.13403238.48888889-.26146064.97381825-.40069906 2.31109636-.40069906h.0541722c0-2.76142375 2.23857625-5 5-5zm5.2468679 6.80076987-10.3010401-.00076987c-.94748846 0-1.20303004.04934735-1.46221841.18796281-.17520564.093701-.30194558.22044094-.39564658.39564658-.13861546.25918837-.18796281.51472995-.18796281 1.46221841v4.8885243c0 1.6350156.11052568 2.2049258.42170393 2.7867785.2462197.4603908.59677465.8109458 1.05716547 1.0571655.58185274.3111782 1.1517629.4217039 2.78677852.4217039h5.66870418c1.6350156 0 2.2049258-.1105257 2.7867785-.4217039.4603908-.2462197.8109458-.5967747 1.0571655-1.0571655.3111782-.5818527.4217039-1.1517629.4217039-2.7867785v-4.8885243c0-.94748846-.0493474-1.20303004-.1879628-1.46221841-.093701-.17520564-.220441-.30194558-.3956466-.39564658-.2406749-.12871435-.4782054-.18045774-1.2695227-.18719294zm-1.3008558 1.09923013c.2053567 0 .3480828.0348096.470305.10017476.1222223.06536516.218143.16128588.2835081.2835081.0653652.12222222.1001748.26494838.1001748.470305v.09202428c0 .20535662-.0348096.34808278-.1001748.470305-.0653651.12222222-.1612858.21814294-.2835081.2835081-.1222222.06536516-.2649483.10017476-.470305.10017476h-.0920242c-.2053567 0-.3480828-.0348096-.470305-.10017476-.1222223-.06536516-.218143-.16128588-.2835081-.2835081-.0653652-.12222222-.1001748-.26494838-.1001748-.470305v-.09202428c0-.20535662.0348096-.34808278.1001748-.470305.0653651-.12222222.1612858-.21814294.2835081-.2835081.1222222-.06536516.2649483-.10017476.470305-.10017476zm-7.99999996 0c.20535662 0 .34808278.0348096.470305.10017476s.21814294.16128588.2835081.2835081.10017476.26494838.10017476.470305v.09202428c0 .20535662-.0348096.34808278-.10017476.470305s-.16128588.21814294-.2835081.2835081-.26494838.10017476-.470305.10017476h-.09202428c-.20535662 0-.34808278-.0348096-.470305-.10017476s-.21814294-.16128588-.2835081-.2835081-.10017476-.26494838-.10017476-.470305v-.09202428c0-.20535662.0348096-.34808278.10017476-.470305s.16128588-.21814294.2835081-.2835081.26494838-.10017476.470305-.10017476zm4.05398786-6.1c-1.7673112 0-3.2 1.4326888-3.2 3.2h6.4c0-1.7673112-1.4326888-3.2-3.2-3.2z" fill="#828a99" transform="translate(3 1)"/></g></svg>