<svg height="24" viewBox="0 0 24 24" width="24" xmlns="http://www.w3.org/2000/svg"><g fill="none" fill-rule="evenodd"><path d="m0 0h24v24h-24z" opacity=".04"/><g fill="#828a99"><path d="m15.8193882 18.8889286c-.3549661 1.8888878-1.8490115 3.1110713-3.8193882 3.1110713-1.9743248 0-3.46645028-1.2172604-3.81997826-3.1110713h-1.67879787c-.08695309 0-.15878442.0011689-.33222401.0048839-.12386002.002651-.18169398.0037394-.25413176.0045588-1.52470584.017247-2.46462311-.3813867-2.83479474-1.7779956-.32147317-1.2128759.15418206-1.951056 1.49872154-3.2439829.14877551-.1428956.21521203-.2069792.28929462-.2796554.53130552-.5212187.73313435-.8191009.73313435-.9982794v-2.2263082c0-2.95131455 1.0816528-5.26081969 3.10018116-6.43972308.42921446-.25067885.98037689-.10594715 1.23105574.32326731.25067883.42921446.10594713.98037689-.3232673 1.23105575-1.41037547.82371714-2.2079696 2.52671069-2.2079696 4.88540002v2.2263082c0 .8342135-.40525205 1.4323311-1.2725977 2.2832103-.08044075.0789136-.15289442.1488012-.30218521.2921756-.86164251.8285668-1.08759034 1.1792203-1.00644653 1.4853652.09859499.3719859.27848883.4482817 1.07451392.4392773.0644216-.0007287.11528942-.001686.23594571-.0042612.18655794-.0039959.26648728-.0052966.37076981-.0052966h11.00518593c.1071059 0 .1892039.0014183.3803208.0057654.114015.0025855.1621567.0035671.2231365.0043958.800757.0108829.9774153-.063581 1.0781265-.4412135.0697519-.2615457-.1042106-.5874333-.6937617-1.1783865-.3510542-.3518891-.3503774-.9217371.0015117-1.2727913.351889-.3510542.9217371-.3503774 1.2727913.0015117 1.0058032 1.0081952 1.4465846 1.8339206 1.1586711 2.9134983-.3740825 1.4026817-1.3119528 1.7980068-2.8417999 1.7772151-.0682382-.0009274-.1226863-.0020376-.2396073-.004695-.1771934-.0040304-.2506811-.0053-.339389-.0053zm-3.8193882 1.3110713c.9678743 0 1.6759475-.4684743 1.9612801-1.2999999h-3.924133c.2836142.8343564.9903518 1.2999999 1.9628529 1.2999999z" fill-rule="nonzero"/><path d="m18 0c3.3137085 0 6 2.6862915 6 6s-2.6862915 6-6 6-6-2.6862915-6-6 2.6862915-6 6-6zm1.7196699 4.21966991-2.4696699 2.46966992-.9696699-.96966992c-.2928932-.29289321-.767767-.29289321-1.0606602 0-.2928932.29289322-.2928932.76776696 0 1.06066018l1.5 1.5c.2928932.29289321.767767.29289321 1.0606602 0l3-3c.2928932-.29289322.2928932-.76776696 0-1.06066018-.2928932-.29289321-.767767-.29289321-1.0606602 0z"/></g></g></svg>