<svg height="24" viewBox="0 0 24 24" width="24" xmlns="http://www.w3.org/2000/svg"><g fill="none" fill-rule="evenodd"><path d="m0 0h24v24h-24z" opacity=".9"/><path d="m12 2c5.5228475 0 10 4.4771525 10 10s-4.4771525 10-10 10-10-4.4771525-10-10 4.4771525-10 10-10zm-8.5 10c0 4.6944204 3.80557963 8.5 8.5 8.5 2.0772398 0 3.9804458-.7451267 5.4569146-1.9826764l-11.97423822-11.97423824c-1.23754971 1.47646879-1.98267638 3.37967489-1.98267638 5.45691464zm8.5-8.5c-2.07723975 0-3.98044585.74512667-5.45691464 1.98267638l11.97423824 11.97423822c1.2375497-1.4764688 1.9826764-3.3796748 1.9826764-5.4569146 0-4.69442037-3.8055796-8.5-8.5-8.5z" fill="#afbac6" fill-rule="nonzero"/></g></svg>