<svg height="24" viewBox="0 0 24 24" width="24" xmlns="http://www.w3.org/2000/svg"><g fill="none" fill-rule="evenodd"><path d="m0 0h24v24h-24z" opacity=".4"/><path d="m13.1245065 20.1457378c-.4863279.7745587-1.3194245 1.2541977-2.3745065 1.2541977-1.22369024 0-2.12229256-.7709602-2.57514637-1.8641303-.08524174-.20577-.15997591-.4280716-.23782528-.696601-.07114129-.2453909-.32817135-1.2358348-.38273287-1.4351927-.14253434-.5207945-.28960892-1.0033129-.46350231-1.5040115h-.390842c-2.22549971 0-3.65-1.7806254-3.65-3.9 0-2.11937464 1.42450029-3.9 3.65-3.9h4.90002443c1.4784685 0 2.5377649-.55149917 3.482589-1.59142332.1786835-.19666867.3507021-.40762028.5372861-.6547874.1165294-.1543659.5150728-.70361027.4693962-.64135946.2060109-.28076395.3495702-.46006339.5139723-.62489417.3560556-.3569841.7452379-.58751124 1.2968052-.58751124h.6999512c1.4108467 0 2.3000244.963208 2.3000244 2.4v11.19995119c0 1.436792-.8891777 2.4-2.3000244 2.4h-.6999512c-.5420067 0-.939296-.2253301-1.2967576-.5740463-.1727793-.1685523-.3239881-.3546764-.5312427-.6357606-.0265513-.0360097-.365041-.5034501-.4731552-.6476373-.1875772-.2501634-.3575916-.4606866-.5339873-.6570477-.5233967-.5826378-1.0773235-1.007041-1.7208119-1.2697671.3495371 1.9645988.3473467 3.0271223-.2195632 3.9300212zm4.7755179-1.9457622h.6999512c.3831594 0 .5000244-.1265949.5000244-.6v-11.19995119c0-.47340512-.116865-.6-.5000244-.6h-.6999512c.0287685 0-.1154433.14458787-.3595377.47725427.0549519-.07489179-.3553893.49061147-.4840152.66100164-.2171739.28768933-.4225857.53959208-.6416568.78071347-1.2627808 1.38988445-2.7823342 2.18100621-4.8148391 2.18100621h-4.90002443c-1.13200008 0-1.85.8974999-1.85 2.1s.71799992 2.1 1.85 2.1h1.19831313c.29926062 0 .56407809.2025213.64755998.4868351.01569358.055673.04134446.1419094.06911667.2264343.01086693.0327612.01086693.0327612.0215239.0634758.26384232.7188209.46357929 1.356408.65398214 2.0521054.06062025.2214953.31277744 1.193162.3753954 1.4091531.06088757.2100222.11572439.3731379.17196861.5089091.1996315.481902.5156396.7530227.912189.7530227.4236434 0 .6870132-.15163.8500843-.4113481.2906286-.4628746.1757617-1.7110575-.2442066-3.7798722-.042196-.2078624-.0695468-.3626711-.0819623-.443174-.0818466-.4727598.2723661-.868267.7368306-.8477343.1280474.0010495.329133.0130467.5659559.04601 1.5730443.2189512 2.78431.9578131 3.8272254 2.1187717.2157401.2401587.4179274.4905207.6350668.7801098.1189997.1587046.4634639.6343956.4817861.6592447.2483407.3368063.3931087.4780325.3792442.4780325z" fill="#828a99" fill-rule="nonzero"/></g></svg>