<svg height="24" viewBox="0 0 24 24" width="24" xmlns="http://www.w3.org/2000/svg"><g fill="none" fill-rule="evenodd"><path d="m0 0h24v24h-24z" opacity=".1"/><path d="m14.4529402 3.10097975.3175316.00882714c.233986.01172081.402195.03526963.5854934.07751537.2953765.06807697.5635323.17915074.8205327.33987576.2232773.139635.3997292.28426981.6995885.57748174l3.0192338 3.01923385.2182871.23077048c.1571652.17374095.2594554.30933423.3591947.46881802.160725.25700039.2717988.52515618.3398757.82053265.0591441.25661775.0816422.48366034.0863425.90302502v4.90588042l-.0088271.3175316c-.0117208.233986-.0352696.402195-.0775154.5854934-.0680769.2953765-.1791507.5635323-.3398757.8205327-.139635.2232773-.2842698.3997292-.5774818.6995885l-3.0192338 3.0192338-.2307705.2182871c-.1737409.1571652-.3093342.2594554-.468818.3591947-.2570004.160725-.5251562.2717988-.8205327.3398757-.2566177.0591441-.4836603.0816422-.903025.0863425h-4.90588042l-.3175316-.0088271c-.233986-.0117208-.40219503-.0352696-.58549342-.0775154-.29537647-.0680769-.56353226-.1791507-.82053265-.3398757-.22327731-.139635-.39972921-.2842698-.6995885-.5774818l-3.01923385-3.0192338-.21828702-.2307705c-.15716523-.1737409-.25945544-.3093342-.35919472-.468818-.16072502-.2570004-.27179879-.5251562-.33987576-.8205327-.05914404-.2566177-.08164212-.4836603-.08634251-.903025v-4.90588042l.00882714-.3175316c.01172081-.233986.03526963-.40219503.07751537-.58549342.06807697-.29537647.17915074-.56353226.33987576-.82053265.139635-.22327731.28426981-.39972921.57748174-.6995885l3.01923385-3.01923385.23077048-.21828702c.17374095-.15716523.30933423-.25945544.46881802-.35919472.25700039-.16072502.52515618-.27179879.82053265-.33987576.25661775-.05914404.48366034-.08164212.90302502-.08634251zm-.1921495 1.79902025-4.66716532.00050523-.22340618.0044036c-.09251633.00345346-.15965298.008905-.21671195.01689733l-.10521495.01953316c-.10060709.02318745-.18283013.05724535-.27036609.1119893-.08774372.0548739-.16692796.11760782-.32718388.27169295l-2.93809296 2.93512127c-.22426273.22426273-.32934387.33757672-.39873458.42957314l-.06058617.08821023c-.05474395.08753596-.08880185.169759-.1119893.27036609l-.01953316.10521495c-.01332054.09509828-.01958335.21819013-.02130093.44011813l.00102171 4.90201662c.00262928.1672584.00886161.2693379.02027922.3508507l.01953316.105215c.02318745.1006071.05724535.1828301.1119893.2703661.0548739.0877437.11760782.166928.27169295.3271839l2.93512127 2.9380929c.22426273.2242628.33757672.3293439.42957314.3987346l.08821023.0605862c.08753596.0547439.169759.0888018.27036609.1119893l.10521495.0195331c.11411794.0159847.26854661.0218062.585702.0218062l4.75643275-.0015269c.1672584-.0026293.2693379-.0088617.3508507-.0202793l.105215-.0195331c.1006071-.0231875.1828301-.0572454.2703661-.1119893.0877437-.0548739.166928-.1176078.3271839-.271693l2.9380929-2.9351212c.2242628-.2242628.3293439-.3375768.3987346-.4295732l.0605862-.0882102c.0547439-.087536.0888018-.169759.1119893-.2703661l.0195331-.105215c.0159847-.1141179.0218062-.2685466.0218062-.585702l-.0015269-4.75643267c-.0026293-.16725845-.0088617-.26933797-.0202793-.35085078l-.0195331-.10521495c-.0231875-.10060709-.0572454-.18283013-.1119893-.27036609-.0548739-.08774372-.1176078-.16692796-.271693-.32718388l-2.9351212-2.93809296c-.2242628-.22426273-.3375768-.32934387-.4295732-.39873458l-.0882102-.06058617c-.087536-.05474395-.169759-.08880185-.2703661-.1119893-.0840382-.01936873-.167733-.03067472-.3219269-.03643049zm-2.2607907 9.1c.5522847 0 1 .4477153 1 1s-.4477153 1-1 1-1-.4477153-1-1 .4477153-1 1-1zm0-6c.4970563 0 .9.40294373.9.9v3.2c0 .4970563-.4029437.9-.9.9s-.9-.4029437-.9-.9v-3.2c0-.49705627.4029437-.9.9-.9z" fill="#828a99"/></g></svg>