<svg height="24" viewBox="0 0 24 24" width="24" xmlns="http://www.w3.org/2000/svg"><g fill="none" fill-rule="evenodd"><path d="m0 0h24v24h-24z" opacity=".1"/><path d="m4.1 17.9c0-3.0528229 3.72888089-4.9 7.9-4.9 4.1711191 0 7.9 1.8471771 7.9 4.9 0 1.9103776-1.1510883 3-2.7 3h-10.4c-1.54891169 0-2.7-1.0896224-2.7-3zm1.8 0c0 .8935059.32378348 1.2.9 1.2h10.4c.5762165 0 .9-.3064941.9-1.2 0-1.7147697-2.7963528-3.1-6.1-3.1-3.30364724 0-6.1 1.3852303-6.1 3.1zm10.1-10.9c0 2.20980627-1.7901937 4-4 4-2.20980627 0-4-1.79019373-4-4s1.79019373-4 4-4c2.2098063 0 4 1.79019373 4 4zm-1.8 0c0-1.21569373-.9843063-2.2-2.2-2.2s-2.2.98430627-2.2 2.2.9843063 2.2 2.2 2.2 2.2-.98430627 2.2-2.2z" fill="#828a99" fill-rule="nonzero"/></g></svg>