<svg height="56" viewBox="0 0 56 56" width="56" xmlns="http://www.w3.org/2000/svg"><g fill="none" fill-rule="evenodd"><path d="m0 0h56v56h-56z"/><path d="m28 4c13.254834 0 24 10.745166 24 24s-10.745166 24-24 24-24-10.745166-24-24 10.745166-24 24-24zm-15.8715482 10.2483542c-3.19496303 3.6842818-5.1284518 8.4921685-5.1284518 13.7516458 0 11.5979797 9.4020203 21 21 21 5.2594773 0 10.067364-1.9334888 13.7516458-5.1284518zm15.8715482-7.2483542c-5.2594773 0-10.067364 1.93348877-13.7516458 5.1284518l29.623194 29.623194c3.194963-3.6842818 5.1284518-8.4921685 5.1284518-13.7516458 0-11.5979797-9.4020203-21-21-21z" fill="#939393" fill-rule="nonzero"/></g></svg>