<svg height="24" viewBox="0 0 24 24" width="24" xmlns="http://www.w3.org/2000/svg"><g fill="none" fill-rule="evenodd"><path d="m0 0h24v24h-24z"/><path d="m11.9967921 8.62490952c5.2723576.2975513 8.6435051 3.25802088 9.9421783 8.72912218.093465.3937532-.0350778.8071484-.3353447 1.0784729-.4542335.4104503-1.1551982.374957-1.5656485-.0792764-1.3568515-1.50172-4.0314901-2.3463245-8.0411851-2.4543515v2.8363225c0 .3016532-.1092896.5930916-.307637.8203644-.4530748.5191473-1.2412165.5727097-1.76036374.1196349l-7.37366661-6.4352109c-.06252541-.0571113-.06252541-.0571113-.11963661-.1196368-.45307366-.5191482-.39950964-1.3072898.11963858-1.7603635l7.37366662-6.43518355c.22727246-.19834642.51871016-.30763533.82036246-.30763533.6890505 0 1.2476363.55858582 1.2476363 1.24763634zm9.3768369 8.52140918.6033992.6677645-.6678873.6035102-.6033992-.6677645.6677645-.6033992c-.2560461-.2833588-.6933202-.3055001-.976679-.049454-.1873118.169257-.267499.4271402-.2091939.6727703-.1760177-.7415341-.3916737-1.4257887-.6476363-2.0533583.7222032.4004856 1.3335495.8765041 1.833632 1.429931zm-10.2768369-6.7463187h-.9v-3.31999721l-5.98124967 5.21998641 5.98124967 5.2200086v-3.4329723h.9c3.6438535 0 6.4610577.5301961 8.4432049 1.6293622-1.4605835-3.5810607-4.2335968-5.3163877-8.4432049-5.3163877z" fill="#828a99" fill-rule="nonzero" transform="matrix(-1 0 0 1 24.104864 0)"/></g></svg>