<svg height="24" viewBox="0 0 24 24" width="24" xmlns="http://www.w3.org/2000/svg"><g fill="none" fill-rule="evenodd"><path d="m0 0h24v24h-24z" opacity=".9"/><path d="m12 2c5.5228475 0 10 4.4771525 10 10s-4.4771525 10-10 10-10-4.4771525-10-10 4.4771525-10 10-10zm0 1.5c-4.69442037 0-8.5 3.80557963-8.5 8.5 0 4.6944204 3.80557963 8.5 8.5 8.5 4.6944204 0 8.5-3.8055796 8.5-8.5 0-4.69442037-3.8055796-8.5-8.5-8.5zm0 11.5c.5522847 0 1 .4477153 1 1s-.4477153 1-1 1-1-.4477153-1-1 .4477153-1 1-1zm0-8.25c.3796958 0 .693491.28215388.7431534.64822944l.0068466.10177056v5c0 .4142136-.3357864.75-.75.75-.3796958 0-.693491-.2821539-.7431534-.6482294l-.0068466-.1017706v-5c0-.41421356.3357864-.75.75-.75z" fill="#afbac6" fill-rule="nonzero"/></g></svg>