<svg height="16" width="16" xmlns="http://www.w3.org/2000/svg"><g fill="none" fill-rule="evenodd"><path d="M0 0h16v16H0z"/><path d="M4 4a4 4 0 118 0h1.077c.669 0 .911.07 1.156.2.244.131.436.323.567.567.13.245.2.487.2 1.156v5.231c0 1.337-.14 1.822-.4 2.311a2.726 2.726 0 01-1.135 1.134c-.489.262-.974.401-2.31.401h-6.31c-1.336 0-1.821-.14-2.31-.4A2.726 2.726 0 011.4 13.464c-.262-.489-.401-.974-.401-2.31V5.922c0-.669.07-.911.2-1.156.131-.244.323-.436.567-.567.245-.13.487-.2 1.156-.2zm1.5 0h5a2.5 2.5 0 00-5 0zm5.729 1.5c-.165 0-.29.03-.396.087a.59.59 0 00-.246.246.816.816 0 00-.087.396v.042c0 .165.03.29.087.396a.59.59 0 00.246.246.816.816 0 00.396.087h.042c.165 0 .29-.03.396-.087a.59.59 0 00.246-.246.816.816 0 00.087-.396V6.23c0-.165-.03-.29-.087-.396a.59.59 0 00-.246-.246.816.816 0 00-.396-.087zm-6.5 0c-.165 0-.29.03-.396.087a.59.59 0 00-.246.246.816.816 0 00-.087.396v.042c0 .165.03.29.087.396a.59.59 0 00.246.246.816.816 0 00.396.087h.042c.165 0 .29-.03.396-.087a.59.59 0 00.246-.246.816.816 0 00.087-.396V6.23c0-.165-.03-.29-.087-.396a.59.59 0 00-.246-.246.816.816 0 00-.396-.087z" fill="#fff" fill-rule="nonzero"/></g></svg>