<svg height="24" viewBox="0 0 24 24" width="24" xmlns="http://www.w3.org/2000/svg"><g fill="none" fill-rule="evenodd"><path d="m0 0h24v24h-24z"/><path d="m18.9788989 9.2502074.1019158.00415932c.377485.04091331.6590503.35523674.6689779.72453217l-.0041593.10191581-.9977976 9.1732192c-.1542168.7407334-.3066513 1.1141163-.6030137 1.4870577-.2724008.342788-.6260669.6021743-1.0465082.7714363-.397655.1600886-.7695174.2243701-1.4390838.2356255l-.2346587.0018466h-6.84914264c-.8219074 0-1.23190358-.0595959-1.67374244-.2374721-.42044134-.169262-.77410745-.4286483-1.04650818-.7714363-.26942043-.3390376-.41989211-.6784402-.5694375-1.3480066l-.04495386-.2111046-.98641996-9.1011657c-.0446327-.41180194.25301674-.78181528.66481863-.82644798.37748506-.04091331.71985614.20578546.80867511.56437835l.01777282.10044028.97504232 9.02911225.06832436.3031782c.07497179.2998396.13819722.4276217.24053273.5564003.10808264.1360108.24902728.2393826.43233509.3131789l.1448599.0500808c.17591014.0502748.38981952.0729491.78689051.0778321l.18181047.0010321h6.84914264l.341193-.0042427c.3973733-.0116188.5826007-.0483055.7723679-.1247023.1833078-.0737963.3242525-.1771681.4323351-.3131789.1169549-.1471755.1828272-.2930496.2655401-.6453362l.0319394-.1421888.9864199-9.10116575c.0409133-.37748507.3552368-.65905037.7245322-.66897795zm-8.9788989 1.4997926c.3796958 0 .693491.2821539.7431534.6482294l.0068466.1017706v5c0 .4142136-.3357864.75-.75.75-.37969577 0-.69349096-.2821539-.74315338-.6482294l-.00684662-.1017706v-5c0-.4142136.33578644-.75.75-.75zm4 0c.3796958 0 .693491.2821539.7431534.6482294l.0068466.1017706v5c0 .4142136-.3357864.75-.75.75-.3796958 0-.693491-.2821539-.7431534-.6482294l-.0068466-.1017706v-5c0-.4142136.3357864-.75.75-.75zm0-8.75c1.6568542 0 3 1.34314575 3 3v.75h3.5c.4142136 0 .75.33578644.75.75 0 .37969577-.2821539.69349096-.6482294.74315338l-.1017706.00684662h-17c-.41421356 0-.75-.33578644-.75-.75 0-.37969577.28215388-.69349096.64822944-.74315338l.10177056-.00684662h3.5v-.75c0-1.65685425 1.34314575-3 3-3zm0 1.5h-4c-.77969612 0-1.42044868.59488808-1.49313342 1.35553999l-.00686658.14446001v.5h7v-.5c0-.77969612-.5948881-1.42044868-1.35554-1.49313342z" fill="#afbac6" fill-rule="nonzero"/></g></svg>