<svg height="48" viewBox="0 0 48 48" width="48" xmlns="http://www.w3.org/2000/svg"><g fill="none" fill-rule="evenodd"><path d="m0 0h48v48h-48z"/><g stroke="#fff" stroke-linecap="round" stroke-width="2"><path d="m13.7755596 13.7454879c-5.27721989 2.9145954-8.7755596 7.4755966-8.7755596 10.2545121 0 4.3333333 8.5065898 13 19 13 3.724568 0 7.1988267-1.0918692 10.131228-2.6942797m4.5750896-3.2596137c2.6834769-2.4552141 4.2936824-5.1607869 4.2936824-7.0461066 0-4.3333333-8.5065898-13-19-13-1.7300317 0-3.4060584.2355737-4.9988626.6484632"/><path d="m18.8769896 19.229764c-1.1645437 1.2501125-1.8769896 2.9269739-1.8769896 4.770236 0 3.8659932 3.1340068 7 7 7 1.9324405 0 3.6819896-.7830509 4.948654-2.0491593m2.051346-4.9508407c0-3.8659932-3.1340068-7-7-7"/><path d="m7.5 7.5 33 33" stroke-linejoin="round"/></g></g></svg>