<svg height="14" viewBox="0 0 14 14" width="14" xmlns="http://www.w3.org/2000/svg" xmlns:xlink="http://www.w3.org/1999/xlink"><mask id="a" fill="#fff"><path d="m0 0h16v16h-16z" fill="#fff" fill-rule="evenodd"/></mask><path d="m8.38 8.997.12.003a2.5 2.5 0 0 0 0-5h-2.35a.15.15 0 0 0 -.15.15v3.85h-.85a.15.15 0 0 0 -.15.15v.7c0 .083.067.15.15.15h.85v1h-.85a.15.15 0 0 0 -.15.15v.7c0 .083.067.15.15.15h3.7a.15.15 0 0 0 .15-.15v-.7a.15.15 0 0 0 -.15-.15h-1.85v-1h1.35a.15.15 0 0 0 .03-.003zm-.38 6.003a7 7 0 1 1 0-14 7 7 0 0 1 0 14zm-2-4v.85c0 .083.067.15.15.15h.7a.15.15 0 0 0 .15-.15v-.85zm1-6h1.5a1.5 1.5 0 0 1 0 3h-1.5z" fill="#c0c4cc" mask="url(#a)" transform="translate(-1 -1)"/></svg>