<svg height="24" viewBox="0 0 24 24" width="24" xmlns="http://www.w3.org/2000/svg"><g fill="none" fill-rule="evenodd"><path d="m0 0h24v24h-24z" opacity=".4"/><path d="m17.9307208 17.9000244h-10.98491741c-1.33727811 0-1.82220747-.1392384-2.31109636-.400699-.48888889-.2614607-.87257175-.6451435-1.13403239-1.1340324s-.40069905-.9738183-.40069905-2.3110964v-6.10839321c0-1.33727811.13923841-1.82220747.40069905-2.31109636s.6451435-.87257175 1.13403239-1.13403239.97381825-.40069905 2.31109636-.40069905h10.10839321c1.3372781 0 1.8222075.13923841 2.3110964.40069905s.8725717.6451435 1.1340324 1.13403239c.2614606.48888889.400699.97381825.400699 2.31109636v4.05419661h-.0055417c-.0497445.449995-.4312518.8-.8945071.8-.4632554 0-.8447627-.350005-.8945071-.8h-.0054441v-.0905266c-.0000325-.003154-.0000488-.0063118-.0000488-.0094734v-.9l.0000488-1.10002446h-14.20004881v4.15422106c0 .9474885.04934735 1.2030301.18796281 1.4622184.093701.1752057.22044094.3019456.39564658.3956466.25918837.1386155.51472994.1879628 1.46221841.1879628h10.77162641l-1.4329803-1.3434395c-.3626184-.33996-.3809868-.9095124-.0410268-1.2721308.33996-.3626185.9095124-.3809868 1.2721308-.0410268l3.1999512 3c.379264.3555654.379264.9575922 0 1.3131576l-3.1999512 3c-.3626184.33996-.9321708.3215917-1.2721308-.0410268-.33996-.3626184-.3215916-.9321708.0410268-1.2721308zm1.1693036-9.80004881v-.1541722c0-.94748847-.0493473-1.20303004-.1879628-1.46221841-.093701-.17520564-.2204409-.30194558-.3956466-.39564658-.2591883-.13861546-.5147299-.18796281-1.4622184-.18796281h-10.10839321c-.94748847 0-1.20303004.04934735-1.46221841.18796281-.17520564.093701-.30194558.22044094-.39564658.39564658-.13861546.25918837-.18796281.51472994-.18796281 1.46221841v.1541722z" fill="#828a99" fill-rule="nonzero"/></g></svg>