<svg height="28" width="28" xmlns="http://www.w3.org/2000/svg"><g fill="none" fill-rule="evenodd"><circle cx="14" cy="14" r="14"/><path d="m14.94 11.64 2.84-2.84zm-1.42 1.42-3.551 3.551c-.355.355-1.775 2.485-1.42 2.84s2.485-1.065 2.84-1.42l3.55-3.55-1.42-1.42zm2.84 0 2.84-2.84zm1.064 1.066 1.066 1.065a1.004 1.004 0 0 1 -1.42 1.42l-1.066-1.065-3.55 3.55c-1.255 1.255-3.724 2.666-4.97 1.42s.165-3.715 1.42-4.97l3.55-3.55-1.065-1.065a1.004 1.004 0 0 1 1.42-1.42l1.065 1.065 2.84-2.84a2.51 2.51 0 0 1 3.55 3.55z" fill="#fff" fill-rule="nonzero"/></g></svg>